<!--
    Derived from 'res/geologo.svg', for special usages only
    Use Inkscape to manipulate shape
-->
<svg width="820" height="620" viewBox="-10 -10 820 620" xmlns="http://www.w3.org/2000/svg"
    xmlns:xlink="http://www.w3.org/1999/xlink">
    <!-- <rect width="100%" height="100%" fill="#FFFFFF" /> -->
    <defs>
        <path id="faceleft"
            d="M0 357C0 523 202 600 400 600C508 540 580 369 580 369C580 369 479 184 400 124C290 124 266 143 266 143C266 143 220 0 182 0C126 0 0 171 0 357Z"
        />
        <mask id="faceleft-mask">
            <use href="#faceleft" stroke="white" stroke-linejoin="round" stroke-width="5.5" fill="black" />
        </mask>

        <mask id="maskmain">
            <!-- Face -->
            <rect x="-10" y="-10" width="410" height="620" mask="url(#faceleft-mask)" fill="white"
                transform="scale(1, 1) translate(0, 0)" />
            <rect x="-10" y="-10" width="410" height="620" mask="url(#faceleft-mask)" fill="white"
                transform="scale(-1, 1) translate(-800, 0)" />

            <!-- Eyes -->
            <path d="M 220 270 281 330 220 390" stroke="white" fill="none"
                stroke-linecap="round"
                stroke-linejoin="round" stroke-width="56"
                transform="scale(1, 1) translate(0, 0) rotate(4 281 330)" />
            <path d="M 220 270 281 330 220 390" stroke="white" fill="none"
                stroke-linecap="round"
                stroke-linejoin="round" stroke-width="56"
                transform="scale(-1, 1) translate(-800, 0) rotate(4 281 330)" />
            <path d="M 220 270 281 330 220 390" stroke="black" fill="none"
                stroke-linecap="round"
                stroke-linejoin="round"
                stroke-width="45"
                transform="scale(1, 1) translate(0, 0) rotate(4 281 330)" />
            <path d="M 220 270 281 330 220 390" stroke="black" fill="none"
                stroke-linecap="round"
                stroke-linejoin="round"
                stroke-width="45"
                transform="scale(-1, 1) translate(-800, 0) rotate(4 281 330)" />
        </mask>
    </defs>
    <g>
        <path d="M0 357C0 523 202 600 400 600C508 540 580 369 580 369C580 369 479 184 400 124C290 124 266 143 266 143C266 143 220 0 182 0C126 0 0 171 0 357Z " />

        <path d="M 220 270 281 330 220 390" stroke="white" fill="none"
                stroke-linecap="round"
                stroke-linejoin="round" stroke-width="56"
                transform="scale(1, 1) translate(0, 0) rotate(4 281 330)" />
            <path d="M 220 270 281 330 220 390" stroke="white" fill="none"
                stroke-linecap="round"
                stroke-linejoin="round" stroke-width="56"
                transform="scale(-1, 1) translate(-800, 0) rotate(4 281 330)" />
            <path d="M 220 270 281 330 220 390" stroke="black" fill="none"
                stroke-linecap="round"
                stroke-linejoin="round"
                stroke-width="45"
                transform="scale(1, 1) translate(0, 0) rotate(4 281 330)" />
            <path d="M 220 270 281 330 220 390" stroke="black" fill="none"
                stroke-linecap="round"
                stroke-linejoin="round"
                stroke-width="45"
                transform="scale(-1, 1) translate(-800, 0) rotate(4 281 330)" />
    </g>
</svg>
