<svg width="800" height="600" xmlns="http://www.w3.org/2000/svg" viewBox="-400 -300 800 600"
    xmlns:xlink="http://www.w3.org/1999/xlink">
    <!-- Optimized output, single path -->
    <rect x="-400" y="-300" width="800" height="600" fill="#DEAD02" />
    <defs>
    </defs>
    <g>
        <path d="
            M182 0 m -400,-300 c-56 0-182 171-182 357 0 166 202 243 400 243s400-77 400-243c0-186-126-357-182-357-38 0-84 143-84 143s-24-19-134-19-134 19-134 19-46-143-84-143zm43.9 240.44a25.5 25.5 0 016.54 1.27 25.5 25.5 0 0111 7.29l56.67 64.11a25.5 25.5 0 01-2.54 36.27l-65.04 55.6a25.5 25.5 0 01-35.95-2.81 25.5 25.5 0 012.82-35.95l45.32-38.76-39.49-44.68a25.5 25.5 0 012.21-36 25.5 25.5 0 0118.46-6.34zm348.2 0a25.5 25.5 0 0118.45 6.34 25.5 25.5 0 012.22 36l-39.5 44.68 45.34 38.76a25.5 25.5 0 012.81 35.95 25.5 25.5 0 01-35.95 2.81l-65.04-55.6a25.5 25.5 0 01-2.54-36.27l56.67-64.11a25.5 25.5 0 0111-7.29 25.5 25.5 0 016.54-1.27z
        " fill="#BEEF01"/>
    </g>
</svg>
