<svg width="800" height="600" xmlns="http://www.w3.org/2000/svg"
    xmlns:xlink="http://www.w3.org/1999/xlink">
    <rect width="100%" height="100%" fill="#DEAD02" />
    <defs>
        <mask id="faceleft">
            <path fill="white"
                d="M0 357C0 523 201.999 600 400 600C508 540 580 369 580 369C580 369 479 184 400 124C290 124 266 143 266 143C266 143 220 0 182 0C126 0 0 171 0 357Z"
            />
        </mask>
        <mask id="maskmain">
            <!-- Face -->
            <rect x="0" y="0" width="800" height="600" fill="white" mask="url(#faceleft)"
                transform="scale(1, 1) translate(0, 0)" />
            <rect x="0" y="0" width="800" height="600" fill="white" mask="url(#faceleft)"
                transform="scale(-1, 1) translate(-800, 0)" />

            <!-- Eyes -->
            <path d="M 256 300 L 256 350" stroke="black" fill="none" stroke-linecap="round"
                stroke-width="90" transform="scale(1, 1) translate(0, 0) rotate(7 256 325)" />
            <path d="M 256 300 L 256 350" stroke="black" fill="none" stroke-linecap="round"
                stroke-width="90" transform="scale(-1, 1) translate(-800, 0) rotate(7 256 325)" />
        </mask>
    </defs>
    <g>
        <rect x="0" y="0" width="800" height="600" fill="#BEEF01" mask="url(#maskmain)" />
    </g>
</svg>
