<?xml version="1.0" encoding="UTF-8" standalone="no"?>
<svg width="136.85683mm" height="25.848938mm" viewBox="0 0 136.85683 25.848938" version="1.1" id="svg1" xmlns="http://www.w3.org/2000/svg" xmlns:svg="http://www.w3.org/2000/svg">
    <defs id="defs1" />
    <g id="layer1" fill="#000102" transform="translate(-39.792399,-100.42623)">
        <g id="g21">
            <g id="text1" style="font-size:35.2778px;line-height:1;text-align:center;letter-spacing:-1.05833px;text-anchor:middle;stroke-width:0.264583" aria-label="NekstFair">
                <path d="m 67.953309,108.51296 c -5.843517,1.34908 -7.403219,6.66903 -6.419182,10.93136 1.214174,5.25916 5.241767,7.80538 10.94779,6.48804 1.634177,-0.37728 2.608736,-0.91249 3.905123,-1.58751 0.806819,-0.42011 1.111631,-1.5225 0.741557,-2.35415 l -0.06322,-0.14292 c -0.425943,-0.95719 -1.498881,-1.28586 -2.460719,-0.87234 -0.836472,0.35961 -1.21663,0.65655 -2.263175,0.89817 -2.440528,0.56344 -4.809886,0.0242 -5.481708,-2.10168 l 9.151973,-2.1129 c 0.925434,-0.21366 1.639357,-1.15997 1.456207,-2.09116 -0.0256,-0.13 -0.05384,-0.26297 -0.08496,-0.39777 -0.960228,-4.1592 -3.998666,-7.91099 -9.4297,-6.65714 z m 0.49236,3.54314 c 2.406155,-0.5555 3.448134,1.44847 3.741758,2.7203 l -6.18725,1.42844 c -0.187872,-1.44106 0.24558,-3.64085 2.445492,-4.14874 z" style="font-weight:bold;font-family:'Myriad Pro';-inkscape-font-specification:'Myriad Pro Bold';display:inline" id="path20" />
                <path d="m 43.348776,102.49775 c -1.964135,0 -3.55638,1.59225 -3.556373,3.55638 l 1.058333,17.79478 c 7.5e-5,1.33993 1.086283,2.4262 2.426209,2.4262 h 0.08423 c 1.341032,0 2.428114,-1.08724 2.428275,-2.42827 -0.635707,-5.01699 -1.038847,-10.05349 -1.269689,-15.10451 l 0.105936,-0.0356 c 1.164168,2.78694 2.716285,5.85638 4.127397,8.39638 l 3.764137,7.04247 c 0.727791,1.3141 2.111558,2.12958 3.613732,2.12958 h 0.10077 c 1.717246,0 3.109343,-1.39212 3.109371,-3.10937 l -0.671487,-19.96984 c 1.41e-4,-1.26239 -1.023261,-2.28565 -2.285649,-2.28565 h -0.178283 c -1.36709,0 -2.475347,1.10821 -2.475302,2.4753 0.08393,4.80073 0.631017,11.19508 1.130374,15.97526 H 54.75482 c -1.058334,-2.68111 -2.33287,-5.64466 -3.743983,-8.14938 l -3.654557,-6.44715 c -0.793893,-1.40075 -2.279603,-2.26648 -3.889685,-2.26653 z" style="font-weight:bold;font-family:'Myriad Pro';-inkscape-font-specification:'Myriad Pro Bold';display:inline" id="path19" />
                <path style="font-weight:bold;font-family:'Myriad Pro';-inkscape-font-specification:'Myriad Pro Bold';letter-spacing:0.264583px;display:inline" d="m 82.625207,100.65062 h -0.01327 a 2.7792289,2.7792289 135 0 0 -2.779229,2.77923 v 19.70391 a 2.5641016,2.5641016 45 0 0 2.564102,2.5641 l 0.133443,0 a 2.6748092,2.6748092 135.10868 0 0 2.67479,-2.66466 l 0.0084,-2.204 1.375834,-1.69334 3.339267,5.28731 a 2.7352846,2.7352846 28.862515 0 0 2.31267,1.27469 h 0.847436 a 2.2317575,2.2317575 117.74992 0 0 1.839247,-3.49584 l -4.652919,-6.77 4.183241,-4.73304 a 1.3547707,1.3547707 65.735751 0 0 -1.015109,-2.25196 l -1.709073,0 c -0.961683,0 -2.12183,0.68473 -2.703874,1.44925 -1.230257,1.61595 -2.774354,3.04628 -3.801569,4.76029 h -0.07055 l 0.03015,-11.43622 a 2.5629596,2.5629596 45.075535 0 0 -2.562951,-2.56972 z" id="path5" transform="rotate(2,76.370572,113.36984)" />
                <path id="path18" style="font-weight:bold;font-family:'Myriad Pro';-inkscape-font-specification:'Myriad Pro Bold';display:inline" d="m 146.77616,108.14672 c -2.20376,-0.27059 -4.07394,-0.0736 -5.43013,0.24856 -0.79249,0.18824 -1.30485,1.09289 -1.17806,1.89836 l 0.0212,0.13693 c 0.1701,1.0806 1.12377,1.57789 2.19504,1.36964 0.94656,-0.18402 2.00156,-0.25042 2.99901,-0.12795 2.62611,0.32245 2.95743,1.67779 2.84565,2.58818 l -0.0301,0.24517 c -6.05325,-0.77881 -10.30694,0.8671 -10.85294,5.31398 -0.33535,2.73115 1.42091,5.50587 4.88738,5.9315 2.03086,0.24936 3.8717,-0.27101 5.15985,-1.49901 l 0.10515,0.0129 0.0126,0.21554 c 0.0531,0.89166 0.7356,1.6181 1.62221,1.72675 l 0.37545,0.0461 c 1.5969,0.19607 2.85968,-0.95321 3.01513,-2.55321 0.0408,-0.41829 0.0889,-0.85136 0.14262,-1.28879 l 0.73086,-5.95234 c 0.49442,-4.02671 -0.91347,-7.61153 -6.62089,-8.31232 z m 0.92911,9.67416 c 0.0863,0.0103 0.17302,0.0212 0.26044,0.033 l -0.22786,1.85571 c -0.0387,0.31513 -0.11252,0.62599 -0.21693,0.89751 -0.48343,1.04248 -1.67634,1.7846 -3.0069,1.62123 -1.1905,-0.14618 -3.0775,-0.92352 -2.90983,-2.2891 0.24573,-2.00132 3.42593,-2.4376 6.10108,-2.11838 z" />
                <path d="m 158.42025,109.06957 0.0401,-0.004 a 2.5883518,2.5883518 0 0 1 2.80422,2.35302 l 1.03964,11.88308 -5.2e-4,4e-5 a 2.733808,2.733808 0 0 1 -2.48502,2.96153 l -0.0247,0.002 a 2.6032803,2.6032803 0 0 1 -2.82041,-2.36613 l -1.03838,-11.86867 a 2.7338875,2.7338875 0 0 1 2.48503,-2.96153 z" style="font-weight:bold;font-family:'Myriad Pro';-inkscape-font-specification:'Myriad Pro Bold';display:inline" id="path16" />
                <path d="m 175.68765,109.71025 c -1.64192,-0.23075 -3.88569,0.52266 -5.10764,2.88028 l -0.13971,-0.0196 0.0912,-1.0794 a 2.2167323,2.2167323 0 0 0 -1.90041,-2.38107 l -0.0829,-0.0116 c -1.33475,-0.18758 -2.51165,0.74907 -2.66061,2.08865 -0.10156,0.91303 -0.23008,1.95612 -0.40712,3.21578 l -1.22982,8.75067 a 2.7345139,2.7345139 0 0 0 2.32758,3.08819 l 0.0568,0.008 a 2.5703801,2.5703801 0 0 0 2.90309,-2.18764 l 0.85987,-6.11831 c 0.0589,-0.41922 0.15239,-0.83353 0.27132,-1.17306 0.58011,-1.59283 2.05507,-2.45451 4.01141,-2.17956 0.7948,0.1117 1.50334,-0.30391 1.61523,-1.10004 l 0.34184,-2.43228 c 0.0871,-0.61975 -0.33152,-1.26196 -0.95013,-1.3489 z" style="font-weight:bold;font-family:'Myriad Pro';-inkscape-font-specification:'Myriad Pro Bold';display:inline" id="path15" />
                <path d="m 104.39964,108.35051 c -4.26601,-0.14897 -7.100918,2.18785 -7.212956,5.39617 -0.106666,2.04363 1.200583,4.03064 4.719616,5.3537 1.98621,0.74004 2.50017,1.18163 2.46939,2.06303 -0.0308,0.88141 -0.72017,1.42216 -2.34196,1.36553 -0.78734,-0.0275 -1.68175,-0.23267 -2.50089,-0.50979 -1.194001,-0.40394 -2.352743,0.0289 -2.69916,1.24395 l -0.02233,0.0768 c -0.241344,0.84654 0.183212,1.89908 1.011903,2.19208 1.146298,0.40531 2.552647,0.68067 4.079977,0.734 4.93589,0.17237 7.55654,-2.1011 7.66858,-5.30942 0.0534,-2.5397 -1.26348,-4.24511 -4.50292,-5.48781 -2.08953,-0.81426 -2.7446,-1.26024 -2.71629,-2.07113 0.0308,-0.88141 0.7894,-1.38459 2.09388,-1.33903 0.64343,0.0225 1.28334,0.15161 1.86351,0.32723 1.0583,0.32035 2.0935,-0.0716 2.4068,-1.1347 0.28384,-0.96308 -0.32473,-2.19 -1.44124,-2.4832 -0.84902,-0.22295 -1.83174,-0.38092 -2.87591,-0.41739 z" style="font-weight:bold;font-family:'Myriad Pro';-inkscape-font-specification:'Myriad Pro Bold';display:inline" id="path11" />
                <path d="m 114.55893,103.85226 a 2.3280615,2.3280615 0 0 0 -2.24536,2.40786 l 0.0911,2.60962 -0.34292,0.012 a 1.9502856,1.9502856 0 0 0 -1.88102,2.01714 l 0.002,0.0584 a 1.9423356,1.9423356 0 0 0 2.00912,1.87354 l 0.35068,-0.0122 0.24623,7.05108 c 0.0849,2.43268 0.6363,4.07266 1.65918,5.06063 0.87694,0.85186 2.34316,1.40063 4.07072,1.34031 0.53669,-0.0187 1.04186,-0.0583 1.50118,-0.11546 1.11108,-0.13826 1.93341,-1.37445 1.88444,-2.4966 l -0.001,-0.0424 c -0.0482,-1.09293 -0.78861,-1.81326 -1.6683,-1.78254 -1.62179,0.0566 -2.14861,-0.87808 -2.22125,-2.9582 l -0.21791,-6.24026 1.91757,-0.067 a 1.9268995,1.9268995 0 0 0 1.85807,-1.99308 l -0.002,-0.0672 a 1.9572421,1.9572421 0 0 0 -2.0241,-1.88749 l -1.8871,0.0659 -0.0818,-2.34313 a 2.5945771,2.5945771 0 0 0 -2.68313,-2.50257 z" style="font-weight:bold;font-family:'Myriad Pro';-inkscape-font-specification:'Myriad Pro Bold';display:inline" id="path10" />
                <path d="m 122.54851,101.62487 c -1.27656,0.15649 0.49654,0.21932 0.65351,1.49582 l 1.91231,20.73188 c 0.18567,1.5121 1.562,2.5874 3.0741,2.40175 l 0.0395,-0.005 c 1.42489,-0.17489 2.43818,-1.47184 2.26317,-2.89672 l -0.84831,-6.90893 6.42628,-0.78905 c 1.13087,-0.13877 1.93507,-1.1681 1.79614,-2.29895 l -0.0237,-0.19337 c -0.14242,-1.16032 -1.19854,-1.98545 -2.35885,-1.84294 l -6.37293,0.7825 -0.66209,-6.45057 7.6166,-0.87023 c 1.09432,-0.1343 1.87229,-1.13033 1.73809,-2.22466 l -0.011,-0.0897 c -0.15619,-1.27364 -1.3156,-2.17933 -2.58921,-2.02291 z" style="font-weight:bold;font-family:'Myriad Pro';-inkscape-font-specification:'Myriad Pro Bold';display:inline" id="path9" />
                <path d="m 158.06114,100.93286 c -1.72861,0 -2.85733,1.16441 -2.82205,2.71663 -0.0353,1.48167 1.09358,2.68097 2.78691,2.68097 1.76389,0 2.89285,-1.1993 2.89285,-2.68097 -0.0353,-1.55222 -1.1291,-2.71663 -2.85771,-2.71663 z" style="font-weight:bold;font-family:'Myriad Pro';-inkscape-font-specification:'Myriad Pro Bold';display:inline" id="path8" />
            </g>
        </g>
    </g>
</svg>
