<svg xmlns="http://www.w3.org/2000/svg" viewBox="-1000 -1000 2000 2000">
    <defs>
        
        <mask id="major_black_mask">
            <rect x="-1004" y="-1004" width="2008" height="2008" fill="white"  />
            <ellipse cx="0" cy="700" rx="410" ry="700" stroke="black" stroke-width="15" fill="none" transform="rotate(0)" /><ellipse cx="0" cy="700" rx="410" ry="700" stroke="black" stroke-width="15" fill="none" transform="rotate(10)" /><ellipse cx="0" cy="700" rx="410" ry="700" stroke="black" stroke-width="15" fill="none" transform="rotate(20)" /><ellipse cx="0" cy="700" rx="410" ry="700" stroke="black" stroke-width="15" fill="none" transform="rotate(30)" /><ellipse cx="0" cy="700" rx="410" ry="700" stroke="black" stroke-width="15" fill="none" transform="rotate(40)" /><ellipse cx="0" cy="700" rx="410" ry="700" stroke="black" stroke-width="15" fill="none" transform="rotate(50)" /><ellipse cx="0" cy="700" rx="410" ry="700" stroke="black" stroke-width="15" fill="none" transform="rotate(60)" /><ellipse cx="0" cy="700" rx="410" ry="700" stroke="black" stroke-width="15" fill="none" transform="rotate(70)" /><ellipse cx="0" cy="700" rx="410" ry="700" stroke="black" stroke-width="15" fill="none" transform="rotate(80)" /><ellipse cx="0" cy="700" rx="410" ry="700" stroke="black" stroke-width="15" fill="none" transform="rotate(90)" /><ellipse cx="0" cy="700" rx="410" ry="700" stroke="black" stroke-width="15" fill="none" transform="rotate(100)" /><ellipse cx="0" cy="700" rx="410" ry="700" stroke="black" stroke-width="15" fill="none" transform="rotate(110.00000000000001)" /><ellipse cx="0" cy="700" rx="410" ry="700" stroke="black" stroke-width="15" fill="none" transform="rotate(120)" /><ellipse cx="0" cy="700" rx="410" ry="700" stroke="black" stroke-width="15" fill="none" transform="rotate(130)" /><ellipse cx="0" cy="700" rx="410" ry="700" stroke="black" stroke-width="15" fill="none" transform="rotate(140)" /><ellipse cx="0" cy="700" rx="410" ry="700" stroke="black" stroke-width="15" fill="none" transform="rotate(150)" /><ellipse cx="0" cy="700" rx="410" ry="700" stroke="black" stroke-width="15" fill="none" transform="rotate(160)" /><ellipse cx="0" cy="700" rx="410" ry="700" stroke="black" stroke-width="15" fill="none" transform="rotate(170)" /><ellipse cx="0" cy="700" rx="410" ry="700" stroke="black" stroke-width="15" fill="none" transform="rotate(180)" /><ellipse cx="0" cy="700" rx="410" ry="700" stroke="black" stroke-width="15" fill="none" transform="rotate(190)" /><ellipse cx="0" cy="700" rx="410" ry="700" stroke="black" stroke-width="15" fill="none" transform="rotate(200)" /><ellipse cx="0" cy="700" rx="410" ry="700" stroke="black" stroke-width="15" fill="none" transform="rotate(210)" /><ellipse cx="0" cy="700" rx="410" ry="700" stroke="black" stroke-width="15" fill="none" transform="rotate(220.00000000000003)" /><ellipse cx="0" cy="700" rx="410" ry="700" stroke="black" stroke-width="15" fill="none" transform="rotate(229.99999999999997)" /><ellipse cx="0" cy="700" rx="410" ry="700" stroke="black" stroke-width="15" fill="none" transform="rotate(240)" /><ellipse cx="0" cy="700" rx="410" ry="700" stroke="black" stroke-width="15" fill="none" transform="rotate(250)" /><ellipse cx="0" cy="700" rx="410" ry="700" stroke="black" stroke-width="15" fill="none" transform="rotate(260)" /><ellipse cx="0" cy="700" rx="410" ry="700" stroke="black" stroke-width="15" fill="none" transform="rotate(270)" /><ellipse cx="0" cy="700" rx="410" ry="700" stroke="black" stroke-width="15" fill="none" transform="rotate(280)" /><ellipse cx="0" cy="700" rx="410" ry="700" stroke="black" stroke-width="15" fill="none" transform="rotate(290)" /><ellipse cx="0" cy="700" rx="410" ry="700" stroke="black" stroke-width="15" fill="none" transform="rotate(300)" /><ellipse cx="0" cy="700" rx="410" ry="700" stroke="black" stroke-width="15" fill="none" transform="rotate(310)" /><ellipse cx="0" cy="700" rx="410" ry="700" stroke="black" stroke-width="15" fill="none" transform="rotate(320)" /><ellipse cx="0" cy="700" rx="410" ry="700" stroke="black" stroke-width="15" fill="none" transform="rotate(330)" /><ellipse cx="0" cy="700" rx="410" ry="700" stroke="black" stroke-width="15" fill="none" transform="rotate(340)" /><ellipse cx="0" cy="700" rx="410" ry="700" stroke="black" stroke-width="15" fill="none" transform="rotate(350)" />
        </mask>
    </defs>

    <rect x="-1004" y="-1004" width="2008" height="2008" fill="black" mask="url(#major_black_mask)" />

</svg>
