<svg viewBox="-2150 -2150 4300 4300" xmlns="http://www.w3.org/2000/svg">
<desc>Copyright (c) 2024 Nekostein, an unincorporated game development team. All rights reserved.</desc>

<defs>
    
</defs>
<circle cx="0" cy="0" r="2150" stroke="none" stroke-width="0" fill="#EEEEEE" opacity="0" />

<g><path d="
            M 0 0 C 97 0 97 -97 97 -97 q 0 -319 -580 -885
        "   fill="none" stroke="black" stroke-width="30" stroke-linejoin="round" stroke-linecap="round"   transform="rotate(0) translate(0,2100)" />
<path d="
            M 0 0 C 97 0 97 -97 97 -97 q 0 -319 -580 -885
        "   fill="none" stroke="black" stroke-width="30" stroke-linejoin="round" stroke-linecap="round"   transform="rotate(0) translate(0,2100) scale(-1,1)" />
<path d="
            M 0 0 C 97 0 97 -97 97 -97 q 0 -319 -580 -885
        "   fill="none" stroke="black" stroke-width="30" stroke-linejoin="round" stroke-linecap="round"   transform="rotate(6) translate(0,2100)" />
<path d="
            M 0 0 C 97 0 97 -97 97 -97 q 0 -319 -580 -885
        "   fill="none" stroke="black" stroke-width="30" stroke-linejoin="round" stroke-linecap="round"   transform="rotate(6) translate(0,2100) scale(-1,1)" />
<path d="
            M 0 0 C 97 0 97 -97 97 -97 q 0 -319 -580 -885
        "   fill="none" stroke="black" stroke-width="30" stroke-linejoin="round" stroke-linecap="round"   transform="rotate(12) translate(0,2100)" />
<path d="
            M 0 0 C 97 0 97 -97 97 -97 q 0 -319 -580 -885
        "   fill="none" stroke="black" stroke-width="30" stroke-linejoin="round" stroke-linecap="round"   transform="rotate(12) translate(0,2100) scale(-1,1)" />
<path d="
            M 0 0 C 97 0 97 -97 97 -97 q 0 -319 -580 -885
        "   fill="none" stroke="black" stroke-width="30" stroke-linejoin="round" stroke-linecap="round"   transform="rotate(18) translate(0,2100)" />
<path d="
            M 0 0 C 97 0 97 -97 97 -97 q 0 -319 -580 -885
        "   fill="none" stroke="black" stroke-width="30" stroke-linejoin="round" stroke-linecap="round"   transform="rotate(18) translate(0,2100) scale(-1,1)" />
<path d="
            M 0 0 C 97 0 97 -97 97 -97 q 0 -319 -580 -885
        "   fill="none" stroke="black" stroke-width="30" stroke-linejoin="round" stroke-linecap="round"   transform="rotate(24) translate(0,2100)" />
<path d="
            M 0 0 C 97 0 97 -97 97 -97 q 0 -319 -580 -885
        "   fill="none" stroke="black" stroke-width="30" stroke-linejoin="round" stroke-linecap="round"   transform="rotate(24) translate(0,2100) scale(-1,1)" />
<path d="
            M 0 0 C 97 0 97 -97 97 -97 q 0 -319 -580 -885
        "   fill="none" stroke="black" stroke-width="30" stroke-linejoin="round" stroke-linecap="round"   transform="rotate(30) translate(0,2100)" />
<path d="
            M 0 0 C 97 0 97 -97 97 -97 q 0 -319 -580 -885
        "   fill="none" stroke="black" stroke-width="30" stroke-linejoin="round" stroke-linecap="round"   transform="rotate(30) translate(0,2100) scale(-1,1)" />
<path d="
            M 0 0 C 97 0 97 -97 97 -97 q 0 -319 -580 -885
        "   fill="none" stroke="black" stroke-width="30" stroke-linejoin="round" stroke-linecap="round"   transform="rotate(36) translate(0,2100)" />
<path d="
            M 0 0 C 97 0 97 -97 97 -97 q 0 -319 -580 -885
        "   fill="none" stroke="black" stroke-width="30" stroke-linejoin="round" stroke-linecap="round"   transform="rotate(36) translate(0,2100) scale(-1,1)" />
<path d="
            M 0 0 C 97 0 97 -97 97 -97 q 0 -319 -580 -885
        "   fill="none" stroke="black" stroke-width="30" stroke-linejoin="round" stroke-linecap="round"   transform="rotate(42) translate(0,2100)" />
<path d="
            M 0 0 C 97 0 97 -97 97 -97 q 0 -319 -580 -885
        "   fill="none" stroke="black" stroke-width="30" stroke-linejoin="round" stroke-linecap="round"   transform="rotate(42) translate(0,2100) scale(-1,1)" />
<path d="
            M 0 0 C 97 0 97 -97 97 -97 q 0 -319 -580 -885
        "   fill="none" stroke="black" stroke-width="30" stroke-linejoin="round" stroke-linecap="round"   transform="rotate(48) translate(0,2100)" />
<path d="
            M 0 0 C 97 0 97 -97 97 -97 q 0 -319 -580 -885
        "   fill="none" stroke="black" stroke-width="30" stroke-linejoin="round" stroke-linecap="round"   transform="rotate(48) translate(0,2100) scale(-1,1)" />
<path d="
            M 0 0 C 97 0 97 -97 97 -97 q 0 -319 -580 -885
        "   fill="none" stroke="black" stroke-width="30" stroke-linejoin="round" stroke-linecap="round"   transform="rotate(54) translate(0,2100)" />
<path d="
            M 0 0 C 97 0 97 -97 97 -97 q 0 -319 -580 -885
        "   fill="none" stroke="black" stroke-width="30" stroke-linejoin="round" stroke-linecap="round"   transform="rotate(54) translate(0,2100) scale(-1,1)" />
<path d="
            M 0 0 C 97 0 97 -97 97 -97 q 0 -319 -580 -885
        "   fill="none" stroke="black" stroke-width="30" stroke-linejoin="round" stroke-linecap="round"   transform="rotate(60) translate(0,2100)" />
<path d="
            M 0 0 C 97 0 97 -97 97 -97 q 0 -319 -580 -885
        "   fill="none" stroke="black" stroke-width="30" stroke-linejoin="round" stroke-linecap="round"   transform="rotate(60) translate(0,2100) scale(-1,1)" />
<path d="
            M 0 0 C 97 0 97 -97 97 -97 q 0 -319 -580 -885
        "   fill="none" stroke="black" stroke-width="30" stroke-linejoin="round" stroke-linecap="round"   transform="rotate(66) translate(0,2100)" />
<path d="
            M 0 0 C 97 0 97 -97 97 -97 q 0 -319 -580 -885
        "   fill="none" stroke="black" stroke-width="30" stroke-linejoin="round" stroke-linecap="round"   transform="rotate(66) translate(0,2100) scale(-1,1)" />
<path d="
            M 0 0 C 97 0 97 -97 97 -97 q 0 -319 -580 -885
        "   fill="none" stroke="black" stroke-width="30" stroke-linejoin="round" stroke-linecap="round"   transform="rotate(72) translate(0,2100)" />
<path d="
            M 0 0 C 97 0 97 -97 97 -97 q 0 -319 -580 -885
        "   fill="none" stroke="black" stroke-width="30" stroke-linejoin="round" stroke-linecap="round"   transform="rotate(72) translate(0,2100) scale(-1,1)" />
<path d="
            M 0 0 C 97 0 97 -97 97 -97 q 0 -319 -580 -885
        "   fill="none" stroke="black" stroke-width="30" stroke-linejoin="round" stroke-linecap="round"   transform="rotate(78) translate(0,2100)" />
<path d="
            M 0 0 C 97 0 97 -97 97 -97 q 0 -319 -580 -885
        "   fill="none" stroke="black" stroke-width="30" stroke-linejoin="round" stroke-linecap="round"   transform="rotate(78) translate(0,2100) scale(-1,1)" />
<path d="
            M 0 0 C 97 0 97 -97 97 -97 q 0 -319 -580 -885
        "   fill="none" stroke="black" stroke-width="30" stroke-linejoin="round" stroke-linecap="round"   transform="rotate(84) translate(0,2100)" />
<path d="
            M 0 0 C 97 0 97 -97 97 -97 q 0 -319 -580 -885
        "   fill="none" stroke="black" stroke-width="30" stroke-linejoin="round" stroke-linecap="round"   transform="rotate(84) translate(0,2100) scale(-1,1)" />
<path d="
            M 0 0 C 97 0 97 -97 97 -97 q 0 -319 -580 -885
        "   fill="none" stroke="black" stroke-width="30" stroke-linejoin="round" stroke-linecap="round"   transform="rotate(90) translate(0,2100)" />
<path d="
            M 0 0 C 97 0 97 -97 97 -97 q 0 -319 -580 -885
        "   fill="none" stroke="black" stroke-width="30" stroke-linejoin="round" stroke-linecap="round"   transform="rotate(90) translate(0,2100) scale(-1,1)" />
<path d="
            M 0 0 C 97 0 97 -97 97 -97 q 0 -319 -580 -885
        "   fill="none" stroke="black" stroke-width="30" stroke-linejoin="round" stroke-linecap="round"   transform="rotate(96) translate(0,2100)" />
<path d="
            M 0 0 C 97 0 97 -97 97 -97 q 0 -319 -580 -885
        "   fill="none" stroke="black" stroke-width="30" stroke-linejoin="round" stroke-linecap="round"   transform="rotate(96) translate(0,2100) scale(-1,1)" />
<path d="
            M 0 0 C 97 0 97 -97 97 -97 q 0 -319 -580 -885
        "   fill="none" stroke="black" stroke-width="30" stroke-linejoin="round" stroke-linecap="round"   transform="rotate(102) translate(0,2100)" />
<path d="
            M 0 0 C 97 0 97 -97 97 -97 q 0 -319 -580 -885
        "   fill="none" stroke="black" stroke-width="30" stroke-linejoin="round" stroke-linecap="round"   transform="rotate(102) translate(0,2100) scale(-1,1)" />
<path d="
            M 0 0 C 97 0 97 -97 97 -97 q 0 -319 -580 -885
        "   fill="none" stroke="black" stroke-width="30" stroke-linejoin="round" stroke-linecap="round"   transform="rotate(108) translate(0,2100)" />
<path d="
            M 0 0 C 97 0 97 -97 97 -97 q 0 -319 -580 -885
        "   fill="none" stroke="black" stroke-width="30" stroke-linejoin="round" stroke-linecap="round"   transform="rotate(108) translate(0,2100) scale(-1,1)" />
<path d="
            M 0 0 C 97 0 97 -97 97 -97 q 0 -319 -580 -885
        "   fill="none" stroke="black" stroke-width="30" stroke-linejoin="round" stroke-linecap="round"   transform="rotate(114) translate(0,2100)" />
<path d="
            M 0 0 C 97 0 97 -97 97 -97 q 0 -319 -580 -885
        "   fill="none" stroke="black" stroke-width="30" stroke-linejoin="round" stroke-linecap="round"   transform="rotate(114) translate(0,2100) scale(-1,1)" />
<path d="
            M 0 0 C 97 0 97 -97 97 -97 q 0 -319 -580 -885
        "   fill="none" stroke="black" stroke-width="30" stroke-linejoin="round" stroke-linecap="round"   transform="rotate(120) translate(0,2100)" />
<path d="
            M 0 0 C 97 0 97 -97 97 -97 q 0 -319 -580 -885
        "   fill="none" stroke="black" stroke-width="30" stroke-linejoin="round" stroke-linecap="round"   transform="rotate(120) translate(0,2100) scale(-1,1)" />
<path d="
            M 0 0 C 97 0 97 -97 97 -97 q 0 -319 -580 -885
        "   fill="none" stroke="black" stroke-width="30" stroke-linejoin="round" stroke-linecap="round"   transform="rotate(125.99999999999999) translate(0,2100)" />
<path d="
            M 0 0 C 97 0 97 -97 97 -97 q 0 -319 -580 -885
        "   fill="none" stroke="black" stroke-width="30" stroke-linejoin="round" stroke-linecap="round"   transform="rotate(125.99999999999999) translate(0,2100) scale(-1,1)" />
<path d="
            M 0 0 C 97 0 97 -97 97 -97 q 0 -319 -580 -885
        "   fill="none" stroke="black" stroke-width="30" stroke-linejoin="round" stroke-linecap="round"   transform="rotate(132) translate(0,2100)" />
<path d="
            M 0 0 C 97 0 97 -97 97 -97 q 0 -319 -580 -885
        "   fill="none" stroke="black" stroke-width="30" stroke-linejoin="round" stroke-linecap="round"   transform="rotate(132) translate(0,2100) scale(-1,1)" />
<path d="
            M 0 0 C 97 0 97 -97 97 -97 q 0 -319 -580 -885
        "   fill="none" stroke="black" stroke-width="30" stroke-linejoin="round" stroke-linecap="round"   transform="rotate(138) translate(0,2100)" />
<path d="
            M 0 0 C 97 0 97 -97 97 -97 q 0 -319 -580 -885
        "   fill="none" stroke="black" stroke-width="30" stroke-linejoin="round" stroke-linecap="round"   transform="rotate(138) translate(0,2100) scale(-1,1)" />
<path d="
            M 0 0 C 97 0 97 -97 97 -97 q 0 -319 -580 -885
        "   fill="none" stroke="black" stroke-width="30" stroke-linejoin="round" stroke-linecap="round"   transform="rotate(144) translate(0,2100)" />
<path d="
            M 0 0 C 97 0 97 -97 97 -97 q 0 -319 -580 -885
        "   fill="none" stroke="black" stroke-width="30" stroke-linejoin="round" stroke-linecap="round"   transform="rotate(144) translate(0,2100) scale(-1,1)" />
<path d="
            M 0 0 C 97 0 97 -97 97 -97 q 0 -319 -580 -885
        "   fill="none" stroke="black" stroke-width="30" stroke-linejoin="round" stroke-linecap="round"   transform="rotate(150) translate(0,2100)" />
<path d="
            M 0 0 C 97 0 97 -97 97 -97 q 0 -319 -580 -885
        "   fill="none" stroke="black" stroke-width="30" stroke-linejoin="round" stroke-linecap="round"   transform="rotate(150) translate(0,2100) scale(-1,1)" />
<path d="
            M 0 0 C 97 0 97 -97 97 -97 q 0 -319 -580 -885
        "   fill="none" stroke="black" stroke-width="30" stroke-linejoin="round" stroke-linecap="round"   transform="rotate(156) translate(0,2100)" />
<path d="
            M 0 0 C 97 0 97 -97 97 -97 q 0 -319 -580 -885
        "   fill="none" stroke="black" stroke-width="30" stroke-linejoin="round" stroke-linecap="round"   transform="rotate(156) translate(0,2100) scale(-1,1)" />
<path d="
            M 0 0 C 97 0 97 -97 97 -97 q 0 -319 -580 -885
        "   fill="none" stroke="black" stroke-width="30" stroke-linejoin="round" stroke-linecap="round"   transform="rotate(162) translate(0,2100)" />
<path d="
            M 0 0 C 97 0 97 -97 97 -97 q 0 -319 -580 -885
        "   fill="none" stroke="black" stroke-width="30" stroke-linejoin="round" stroke-linecap="round"   transform="rotate(162) translate(0,2100) scale(-1,1)" />
<path d="
            M 0 0 C 97 0 97 -97 97 -97 q 0 -319 -580 -885
        "   fill="none" stroke="black" stroke-width="30" stroke-linejoin="round" stroke-linecap="round"   transform="rotate(168) translate(0,2100)" />
<path d="
            M 0 0 C 97 0 97 -97 97 -97 q 0 -319 -580 -885
        "   fill="none" stroke="black" stroke-width="30" stroke-linejoin="round" stroke-linecap="round"   transform="rotate(168) translate(0,2100) scale(-1,1)" />
<path d="
            M 0 0 C 97 0 97 -97 97 -97 q 0 -319 -580 -885
        "   fill="none" stroke="black" stroke-width="30" stroke-linejoin="round" stroke-linecap="round"   transform="rotate(174) translate(0,2100)" />
<path d="
            M 0 0 C 97 0 97 -97 97 -97 q 0 -319 -580 -885
        "   fill="none" stroke="black" stroke-width="30" stroke-linejoin="round" stroke-linecap="round"   transform="rotate(174) translate(0,2100) scale(-1,1)" />
<path d="
            M 0 0 C 97 0 97 -97 97 -97 q 0 -319 -580 -885
        "   fill="none" stroke="black" stroke-width="30" stroke-linejoin="round" stroke-linecap="round"   transform="rotate(180) translate(0,2100)" />
<path d="
            M 0 0 C 97 0 97 -97 97 -97 q 0 -319 -580 -885
        "   fill="none" stroke="black" stroke-width="30" stroke-linejoin="round" stroke-linecap="round"   transform="rotate(180) translate(0,2100) scale(-1,1)" />
<path d="
            M 0 0 C 97 0 97 -97 97 -97 q 0 -319 -580 -885
        "   fill="none" stroke="black" stroke-width="30" stroke-linejoin="round" stroke-linecap="round"   transform="rotate(186.00000000000003) translate(0,2100)" />
<path d="
            M 0 0 C 97 0 97 -97 97 -97 q 0 -319 -580 -885
        "   fill="none" stroke="black" stroke-width="30" stroke-linejoin="round" stroke-linecap="round"   transform="rotate(186.00000000000003) translate(0,2100) scale(-1,1)" />
<path d="
            M 0 0 C 97 0 97 -97 97 -97 q 0 -319 -580 -885
        "   fill="none" stroke="black" stroke-width="30" stroke-linejoin="round" stroke-linecap="round"   transform="rotate(192) translate(0,2100)" />
<path d="
            M 0 0 C 97 0 97 -97 97 -97 q 0 -319 -580 -885
        "   fill="none" stroke="black" stroke-width="30" stroke-linejoin="round" stroke-linecap="round"   transform="rotate(192) translate(0,2100) scale(-1,1)" />
<path d="
            M 0 0 C 97 0 97 -97 97 -97 q 0 -319 -580 -885
        "   fill="none" stroke="black" stroke-width="30" stroke-linejoin="round" stroke-linecap="round"   transform="rotate(198.00000000000003) translate(0,2100)" />
<path d="
            M 0 0 C 97 0 97 -97 97 -97 q 0 -319 -580 -885
        "   fill="none" stroke="black" stroke-width="30" stroke-linejoin="round" stroke-linecap="round"   transform="rotate(198.00000000000003) translate(0,2100) scale(-1,1)" />
<path d="
            M 0 0 C 97 0 97 -97 97 -97 q 0 -319 -580 -885
        "   fill="none" stroke="black" stroke-width="30" stroke-linejoin="round" stroke-linecap="round"   transform="rotate(204) translate(0,2100)" />
<path d="
            M 0 0 C 97 0 97 -97 97 -97 q 0 -319 -580 -885
        "   fill="none" stroke="black" stroke-width="30" stroke-linejoin="round" stroke-linecap="round"   transform="rotate(204) translate(0,2100) scale(-1,1)" />
<path d="
            M 0 0 C 97 0 97 -97 97 -97 q 0 -319 -580 -885
        "   fill="none" stroke="black" stroke-width="30" stroke-linejoin="round" stroke-linecap="round"   transform="rotate(210) translate(0,2100)" />
<path d="
            M 0 0 C 97 0 97 -97 97 -97 q 0 -319 -580 -885
        "   fill="none" stroke="black" stroke-width="30" stroke-linejoin="round" stroke-linecap="round"   transform="rotate(210) translate(0,2100) scale(-1,1)" />
<path d="
            M 0 0 C 97 0 97 -97 97 -97 q 0 -319 -580 -885
        "   fill="none" stroke="black" stroke-width="30" stroke-linejoin="round" stroke-linecap="round"   transform="rotate(216) translate(0,2100)" />
<path d="
            M 0 0 C 97 0 97 -97 97 -97 q 0 -319 -580 -885
        "   fill="none" stroke="black" stroke-width="30" stroke-linejoin="round" stroke-linecap="round"   transform="rotate(216) translate(0,2100) scale(-1,1)" />
<path d="
            M 0 0 C 97 0 97 -97 97 -97 q 0 -319 -580 -885
        "   fill="none" stroke="black" stroke-width="30" stroke-linejoin="round" stroke-linecap="round"   transform="rotate(222) translate(0,2100)" />
<path d="
            M 0 0 C 97 0 97 -97 97 -97 q 0 -319 -580 -885
        "   fill="none" stroke="black" stroke-width="30" stroke-linejoin="round" stroke-linecap="round"   transform="rotate(222) translate(0,2100) scale(-1,1)" />
<path d="
            M 0 0 C 97 0 97 -97 97 -97 q 0 -319 -580 -885
        "   fill="none" stroke="black" stroke-width="30" stroke-linejoin="round" stroke-linecap="round"   transform="rotate(228) translate(0,2100)" />
<path d="
            M 0 0 C 97 0 97 -97 97 -97 q 0 -319 -580 -885
        "   fill="none" stroke="black" stroke-width="30" stroke-linejoin="round" stroke-linecap="round"   transform="rotate(228) translate(0,2100) scale(-1,1)" />
<path d="
            M 0 0 C 97 0 97 -97 97 -97 q 0 -319 -580 -885
        "   fill="none" stroke="black" stroke-width="30" stroke-linejoin="round" stroke-linecap="round"   transform="rotate(234) translate(0,2100)" />
<path d="
            M 0 0 C 97 0 97 -97 97 -97 q 0 -319 -580 -885
        "   fill="none" stroke="black" stroke-width="30" stroke-linejoin="round" stroke-linecap="round"   transform="rotate(234) translate(0,2100) scale(-1,1)" />
<path d="
            M 0 0 C 97 0 97 -97 97 -97 q 0 -319 -580 -885
        "   fill="none" stroke="black" stroke-width="30" stroke-linejoin="round" stroke-linecap="round"   transform="rotate(240) translate(0,2100)" />
<path d="
            M 0 0 C 97 0 97 -97 97 -97 q 0 -319 -580 -885
        "   fill="none" stroke="black" stroke-width="30" stroke-linejoin="round" stroke-linecap="round"   transform="rotate(240) translate(0,2100) scale(-1,1)" />
<path d="
            M 0 0 C 97 0 97 -97 97 -97 q 0 -319 -580 -885
        "   fill="none" stroke="black" stroke-width="30" stroke-linejoin="round" stroke-linecap="round"   transform="rotate(246) translate(0,2100)" />
<path d="
            M 0 0 C 97 0 97 -97 97 -97 q 0 -319 -580 -885
        "   fill="none" stroke="black" stroke-width="30" stroke-linejoin="round" stroke-linecap="round"   transform="rotate(246) translate(0,2100) scale(-1,1)" />
<path d="
            M 0 0 C 97 0 97 -97 97 -97 q 0 -319 -580 -885
        "   fill="none" stroke="black" stroke-width="30" stroke-linejoin="round" stroke-linecap="round"   transform="rotate(251.99999999999997) translate(0,2100)" />
<path d="
            M 0 0 C 97 0 97 -97 97 -97 q 0 -319 -580 -885
        "   fill="none" stroke="black" stroke-width="30" stroke-linejoin="round" stroke-linecap="round"   transform="rotate(251.99999999999997) translate(0,2100) scale(-1,1)" />
<path d="
            M 0 0 C 97 0 97 -97 97 -97 q 0 -319 -580 -885
        "   fill="none" stroke="black" stroke-width="30" stroke-linejoin="round" stroke-linecap="round"   transform="rotate(258) translate(0,2100)" />
<path d="
            M 0 0 C 97 0 97 -97 97 -97 q 0 -319 -580 -885
        "   fill="none" stroke="black" stroke-width="30" stroke-linejoin="round" stroke-linecap="round"   transform="rotate(258) translate(0,2100) scale(-1,1)" />
<path d="
            M 0 0 C 97 0 97 -97 97 -97 q 0 -319 -580 -885
        "   fill="none" stroke="black" stroke-width="30" stroke-linejoin="round" stroke-linecap="round"   transform="rotate(264) translate(0,2100)" />
<path d="
            M 0 0 C 97 0 97 -97 97 -97 q 0 -319 -580 -885
        "   fill="none" stroke="black" stroke-width="30" stroke-linejoin="round" stroke-linecap="round"   transform="rotate(264) translate(0,2100) scale(-1,1)" />
<path d="
            M 0 0 C 97 0 97 -97 97 -97 q 0 -319 -580 -885
        "   fill="none" stroke="black" stroke-width="30" stroke-linejoin="round" stroke-linecap="round"   transform="rotate(270) translate(0,2100)" />
<path d="
            M 0 0 C 97 0 97 -97 97 -97 q 0 -319 -580 -885
        "   fill="none" stroke="black" stroke-width="30" stroke-linejoin="round" stroke-linecap="round"   transform="rotate(270) translate(0,2100) scale(-1,1)" />
<path d="
            M 0 0 C 97 0 97 -97 97 -97 q 0 -319 -580 -885
        "   fill="none" stroke="black" stroke-width="30" stroke-linejoin="round" stroke-linecap="round"   transform="rotate(276) translate(0,2100)" />
<path d="
            M 0 0 C 97 0 97 -97 97 -97 q 0 -319 -580 -885
        "   fill="none" stroke="black" stroke-width="30" stroke-linejoin="round" stroke-linecap="round"   transform="rotate(276) translate(0,2100) scale(-1,1)" />
<path d="
            M 0 0 C 97 0 97 -97 97 -97 q 0 -319 -580 -885
        "   fill="none" stroke="black" stroke-width="30" stroke-linejoin="round" stroke-linecap="round"   transform="rotate(282) translate(0,2100)" />
<path d="
            M 0 0 C 97 0 97 -97 97 -97 q 0 -319 -580 -885
        "   fill="none" stroke="black" stroke-width="30" stroke-linejoin="round" stroke-linecap="round"   transform="rotate(282) translate(0,2100) scale(-1,1)" />
<path d="
            M 0 0 C 97 0 97 -97 97 -97 q 0 -319 -580 -885
        "   fill="none" stroke="black" stroke-width="30" stroke-linejoin="round" stroke-linecap="round"   transform="rotate(288) translate(0,2100)" />
<path d="
            M 0 0 C 97 0 97 -97 97 -97 q 0 -319 -580 -885
        "   fill="none" stroke="black" stroke-width="30" stroke-linejoin="round" stroke-linecap="round"   transform="rotate(288) translate(0,2100) scale(-1,1)" />
<path d="
            M 0 0 C 97 0 97 -97 97 -97 q 0 -319 -580 -885
        "   fill="none" stroke="black" stroke-width="30" stroke-linejoin="round" stroke-linecap="round"   transform="rotate(294) translate(0,2100)" />
<path d="
            M 0 0 C 97 0 97 -97 97 -97 q 0 -319 -580 -885
        "   fill="none" stroke="black" stroke-width="30" stroke-linejoin="round" stroke-linecap="round"   transform="rotate(294) translate(0,2100) scale(-1,1)" />
<path d="
            M 0 0 C 97 0 97 -97 97 -97 q 0 -319 -580 -885
        "   fill="none" stroke="black" stroke-width="30" stroke-linejoin="round" stroke-linecap="round"   transform="rotate(300) translate(0,2100)" />
<path d="
            M 0 0 C 97 0 97 -97 97 -97 q 0 -319 -580 -885
        "   fill="none" stroke="black" stroke-width="30" stroke-linejoin="round" stroke-linecap="round"   transform="rotate(300) translate(0,2100) scale(-1,1)" />
<path d="
            M 0 0 C 97 0 97 -97 97 -97 q 0 -319 -580 -885
        "   fill="none" stroke="black" stroke-width="30" stroke-linejoin="round" stroke-linecap="round"   transform="rotate(306) translate(0,2100)" />
<path d="
            M 0 0 C 97 0 97 -97 97 -97 q 0 -319 -580 -885
        "   fill="none" stroke="black" stroke-width="30" stroke-linejoin="round" stroke-linecap="round"   transform="rotate(306) translate(0,2100) scale(-1,1)" />
<path d="
            M 0 0 C 97 0 97 -97 97 -97 q 0 -319 -580 -885
        "   fill="none" stroke="black" stroke-width="30" stroke-linejoin="round" stroke-linecap="round"   transform="rotate(312) translate(0,2100)" />
<path d="
            M 0 0 C 97 0 97 -97 97 -97 q 0 -319 -580 -885
        "   fill="none" stroke="black" stroke-width="30" stroke-linejoin="round" stroke-linecap="round"   transform="rotate(312) translate(0,2100) scale(-1,1)" />
<path d="
            M 0 0 C 97 0 97 -97 97 -97 q 0 -319 -580 -885
        "   fill="none" stroke="black" stroke-width="30" stroke-linejoin="round" stroke-linecap="round"   transform="rotate(318) translate(0,2100)" />
<path d="
            M 0 0 C 97 0 97 -97 97 -97 q 0 -319 -580 -885
        "   fill="none" stroke="black" stroke-width="30" stroke-linejoin="round" stroke-linecap="round"   transform="rotate(318) translate(0,2100) scale(-1,1)" />
<path d="
            M 0 0 C 97 0 97 -97 97 -97 q 0 -319 -580 -885
        "   fill="none" stroke="black" stroke-width="30" stroke-linejoin="round" stroke-linecap="round"   transform="rotate(324) translate(0,2100)" />
<path d="
            M 0 0 C 97 0 97 -97 97 -97 q 0 -319 -580 -885
        "   fill="none" stroke="black" stroke-width="30" stroke-linejoin="round" stroke-linecap="round"   transform="rotate(324) translate(0,2100) scale(-1,1)" />
<path d="
            M 0 0 C 97 0 97 -97 97 -97 q 0 -319 -580 -885
        "   fill="none" stroke="black" stroke-width="30" stroke-linejoin="round" stroke-linecap="round"   transform="rotate(330) translate(0,2100)" />
<path d="
            M 0 0 C 97 0 97 -97 97 -97 q 0 -319 -580 -885
        "   fill="none" stroke="black" stroke-width="30" stroke-linejoin="round" stroke-linecap="round"   transform="rotate(330) translate(0,2100) scale(-1,1)" />
<path d="
            M 0 0 C 97 0 97 -97 97 -97 q 0 -319 -580 -885
        "   fill="none" stroke="black" stroke-width="30" stroke-linejoin="round" stroke-linecap="round"   transform="rotate(336) translate(0,2100)" />
<path d="
            M 0 0 C 97 0 97 -97 97 -97 q 0 -319 -580 -885
        "   fill="none" stroke="black" stroke-width="30" stroke-linejoin="round" stroke-linecap="round"   transform="rotate(336) translate(0,2100) scale(-1,1)" />
<path d="
            M 0 0 C 97 0 97 -97 97 -97 q 0 -319 -580 -885
        "   fill="none" stroke="black" stroke-width="30" stroke-linejoin="round" stroke-linecap="round"   transform="rotate(342) translate(0,2100)" />
<path d="
            M 0 0 C 97 0 97 -97 97 -97 q 0 -319 -580 -885
        "   fill="none" stroke="black" stroke-width="30" stroke-linejoin="round" stroke-linecap="round"   transform="rotate(342) translate(0,2100) scale(-1,1)" />
<path d="
            M 0 0 C 97 0 97 -97 97 -97 q 0 -319 -580 -885
        "   fill="none" stroke="black" stroke-width="30" stroke-linejoin="round" stroke-linecap="round"   transform="rotate(348) translate(0,2100)" />
<path d="
            M 0 0 C 97 0 97 -97 97 -97 q 0 -319 -580 -885
        "   fill="none" stroke="black" stroke-width="30" stroke-linejoin="round" stroke-linecap="round"   transform="rotate(348) translate(0,2100) scale(-1,1)" />
<path d="
            M 0 0 C 97 0 97 -97 97 -97 q 0 -319 -580 -885
        "   fill="none" stroke="black" stroke-width="30" stroke-linejoin="round" stroke-linecap="round"   transform="rotate(354) translate(0,2100)" />
<path d="
            M 0 0 C 97 0 97 -97 97 -97 q 0 -319 -580 -885
        "   fill="none" stroke="black" stroke-width="30" stroke-linejoin="round" stroke-linecap="round"   transform="rotate(354) translate(0,2100) scale(-1,1)" />
</g><polygon   stroke-width="50"     fill="white"     stroke="black"   points="0 1479 329.99 1231.56 739.5 1280.85 901.56 901.56 1280.85 739.5 1231.56 329.99 1479 0 1231.56 -329.99 1280.85 -739.5 901.56 -901.56 739.5 -1280.85 329.99 -1231.56 0 -1479 -329.99 -1231.56 -739.5 -1280.85 -901.56 -901.56 -1280.85 -739.5 -1231.56 -329.99 -1479 0 -1231.56 329.99 -1280.85 739.5 -901.56 901.56 -739.5 1280.85 -329.99 1231.56" /><polygon   stroke-width="1.00"     fill="black"   points="0 1386.2 309.29 1154.28 693.1 1200.48 844.99 844.99 1200.48 693.1 1154.28 309.29 1386.2 0 1154.28 -309.29 1200.48 -693.1 844.99 -844.99 693.1 -1200.48 309.29 -1154.28 0 -1386.2 -309.29 -1154.28 -693.1 -1200.48 -844.99 -844.99 -1200.48 -693.1 -1154.28 -309.29 -1386.2 0 -1154.28 309.29 -1200.48 693.1 -844.99 844.99 -693.1 1200.48 -309.29 1154.28" />

<circle cx="0" cy="0" r="1950" stroke="white" stroke-width="50" fill="none" opacity="0" />



</svg>