<svg viewBox="-1485 -1050 2970 2100" data-height="100vh" xmlns="http://www.w3.org/2000/svg">
<desc>Copyright (c) 2024 Nekostein, an unincorporated game development team. All rights reserved.</desc>

<defs>
    
    <rect id="contentsizebox"
        x="-1350" y="-915"
        width="2700" height="1830"
        rx="0" ry="0" />
    <mask id="contentsizebox-mask"><use href="#contentsizebox" fill="white" /></mask>
</defs>

<rect x="-1485" y="-1050" width="2970" height="2100" fill="#EEEEEE" opacity="0" />

<polygon  stroke-width="5"  fill="none"  stroke="#FFFFFF"  transform="translate(701,266) scale(4) rotate(-11)"  points="0 122.58 2.14 122.88 4.32 123.75 6.56 125.19 8.89 127.16 11.34 129.62 13.93 132.51 16.67 135.76 19.58 139.3 22.66 143.05 25.91 146.93 29.32 150.84 32.88 154.7 36.57 158.42 40.37 161.9 44.23 165.07 48.13 167.86 52.03 170.18 55.89 172 59.65 173.25 63.29 173.9 66.76 173.92 70.02 173.31 73.04 172.06 75.77 170.19 78.21 167.72 80.32 164.69 82.1 161.14 83.55 157.13 84.66 152.73 85.45 148 85.94 143.02 86.16 137.88 86.14 132.64 85.93 127.4 85.58 122.22 85.13 117.18 84.66 112.34 84.21 107.78 83.85 103.55 83.64 99.68 83.63 96.21 83.89 93.16 84.45 90.56 85.37 88.4 86.68 86.68 88.4 85.37 90.56 84.45 93.16 83.89 96.21 83.63 99.68 83.64 103.55 83.85 107.78 84.21 112.34 84.66 117.18 85.13 122.22 85.58 127.4 85.93 132.64 86.14 137.88 86.16 143.02 85.94 148 85.45 152.73 84.66 157.13 83.55 161.14 82.1 164.69 80.32 167.72 78.21 170.19 75.77 172.06 73.04 173.31 70.02 173.92 66.76 173.9 63.29 173.25 59.65 172 55.89 170.18 52.03 167.86 48.13 165.07 44.23 161.9 40.37 158.42 36.57 154.7 32.88 150.84 29.32 146.93 25.91 143.05 22.66 139.3 19.58 135.76 16.67 132.51 13.93 129.62 11.34 127.16 8.89 125.19 6.56 123.75 4.32 122.88 2.14 122.58 0 122.88 -2.14 123.75 -4.32 125.19 -6.56 127.16 -8.89 129.62 -11.34 132.51 -13.93 135.76 -16.67 139.3 -19.58 143.05 -22.66 146.93 -25.91 150.84 -29.32 154.7 -32.88 158.42 -36.57 161.9 -40.37 165.07 -44.23 167.86 -48.13 170.18 -52.03 172 -55.89 173.25 -59.65 173.9 -63.29 173.92 -66.76 173.31 -70.02 172.06 -73.04 170.19 -75.77 167.72 -78.21 164.69 -80.32 161.14 -82.1 157.13 -83.55 152.73 -84.66 148 -85.45 143.02 -85.94 137.88 -86.16 132.64 -86.14 127.4 -85.93 122.22 -85.58 117.18 -85.13 112.34 -84.66 107.78 -84.21 103.55 -83.85 99.68 -83.64 96.21 -83.63 93.16 -83.89 90.56 -84.45 88.4 -85.37 86.68 -86.68 85.37 -88.4 84.45 -90.56 83.89 -93.16 83.63 -96.21 83.64 -99.68 83.85 -103.55 84.21 -107.78 84.66 -112.34 85.13 -117.18 85.58 -122.22 85.93 -127.4 86.14 -132.64 86.16 -137.88 85.94 -143.02 85.45 -148 84.66 -152.73 83.55 -157.13 82.1 -161.14 80.32 -164.69 78.21 -167.72 75.77 -170.19 73.04 -172.06 70.02 -173.31 66.76 -173.92 63.29 -173.9 59.65 -173.25 55.89 -172 52.03 -170.18 48.13 -167.86 44.23 -165.07 40.37 -161.9 36.57 -158.42 32.88 -154.7 29.32 -150.84 25.91 -146.93 22.66 -143.05 19.58 -139.3 16.67 -135.76 13.93 -132.51 11.34 -129.62 8.89 -127.16 6.56 -125.19 4.32 -123.75 2.14 -122.88 0 -122.58 -2.14 -122.88 -4.32 -123.75 -6.56 -125.19 -8.89 -127.16 -11.34 -129.62 -13.93 -132.51 -16.67 -135.76 -19.58 -139.3 -22.66 -143.05 -25.91 -146.93 -29.32 -150.84 -32.88 -154.7 -36.57 -158.42 -40.37 -161.9 -44.23 -165.07 -48.13 -167.86 -52.03 -170.18 -55.89 -172 -59.65 -173.25 -63.29 -173.9 -66.76 -173.92 -70.02 -173.31 -73.04 -172.06 -75.77 -170.19 -78.21 -167.72 -80.32 -164.69 -82.1 -161.14 -83.55 -157.13 -84.66 -152.73 -85.45 -148 -85.94 -143.02 -86.16 -137.88 -86.14 -132.64 -85.93 -127.4 -85.58 -122.22 -85.13 -117.18 -84.66 -112.34 -84.21 -107.78 -83.85 -103.55 -83.64 -99.68 -83.63 -96.21 -83.89 -93.16 -84.45 -90.56 -85.37 -88.4 -86.68 -86.68 -88.4 -85.37 -90.56 -84.45 -93.16 -83.89 -96.21 -83.63 -99.68 -83.64 -103.55 -83.85 -107.78 -84.21 -112.34 -84.66 -117.18 -85.13 -122.22 -85.58 -127.4 -85.93 -132.64 -86.14 -137.88 -86.16 -143.02 -85.94 -148 -85.45 -152.73 -84.66 -157.13 -83.55 -161.14 -82.1 -164.69 -80.32 -167.72 -78.21 -170.19 -75.77 -172.06 -73.04 -173.31 -70.02 -173.92 -66.76 -173.9 -63.29 -173.25 -59.65 -172 -55.89 -170.18 -52.03 -167.86 -48.13 -165.07 -44.23 -161.9 -40.37 -158.42 -36.57 -154.7 -32.88 -150.84 -29.32 -146.93 -25.91 -143.05 -22.66 -139.3 -19.58 -135.76 -16.67 -132.51 -13.93 -129.62 -11.34 -127.16 -8.89 -125.19 -6.56 -123.75 -4.32 -122.88 -2.14 -122.58 0 -122.88 2.14 -123.75 4.32 -125.19 6.56 -127.16 8.89 -129.62 11.34 -132.51 13.93 -135.76 16.67 -139.3 19.58 -143.05 22.66 -146.93 25.91 -150.84 29.32 -154.7 32.88 -158.42 36.57 -161.9 40.37 -165.07 44.23 -167.86 48.13 -170.18 52.03 -172 55.89 -173.25 59.65 -173.9 63.29 -173.92 66.76 -173.31 70.02 -172.06 73.04 -170.19 75.77 -167.72 78.21 -164.69 80.32 -161.14 82.1 -157.13 83.55 -152.73 84.66 -148 85.45 -143.02 85.94 -137.88 86.16 -132.64 86.14 -127.4 85.93 -122.22 85.58 -117.18 85.13 -112.34 84.66 -107.78 84.21 -103.55 83.85 -99.68 83.64 -96.21 83.63 -93.16 83.89 -90.56 84.45 -88.4 85.37 -86.68 86.68 -85.37 88.4 -84.45 90.56 -83.89 93.16 -83.63 96.21 -83.64 99.68 -83.85 103.55 -84.21 107.78 -84.66 112.34 -85.13 117.18 -85.58 122.22 -85.93 127.4 -86.14 132.64 -86.16 137.88 -85.94 143.02 -85.45 148 -84.66 152.73 -83.55 157.13 -82.1 161.14 -80.32 164.69 -78.21 167.72 -75.77 170.19 -73.04 172.06 -70.02 173.31 -66.76 173.92 -63.29 173.9 -59.65 173.25 -55.89 172 -52.03 170.18 -48.13 167.86 -44.23 165.07 -40.37 161.9 -36.57 158.42 -32.88 154.7 -29.32 150.84 -25.91 146.93 -22.66 143.05 -19.58 139.3 -16.67 135.76 -13.93 132.51 -11.34 129.62 -8.89 127.16 -6.56 125.19 -4.32 123.75 -2.14 122.88" /><polygon  stroke-width="5"  fill="none"  stroke="#FFFFFF"  transform="translate(701,266) scale(4) rotate(-5.5)"  points="0 114.37 2 114.7 4.04 115.7 6.15 117.35 8.36 119.59 10.71 122.4 13.21 125.69 15.89 129.4 18.76 133.45 21.82 137.74 25.07 142.18 28.51 146.67 32.12 151.1 35.87 155.38 39.74 159.41 43.7 163.09 47.7 166.34 51.69 169.08 55.64 171.25 59.5 172.79 63.21 173.66 66.73 173.84 70.02 173.3 73.03 172.05 75.74 170.11 78.1 167.49 80.11 164.25 81.75 160.44 83.01 156.11 83.89 151.35 84.42 146.22 84.61 140.82 84.51 135.24 84.14 129.56 83.55 123.87 82.81 118.27 81.97 112.83 81.1 107.63 80.27 102.74 79.54 98.22 78.98 94.12 78.65 90.48 78.63 87.33 78.96 84.67 79.69 82.52 80.87 80.87 82.52 79.69 84.67 78.96 87.33 78.63 90.48 78.65 94.12 78.98 98.22 79.54 102.74 80.27 107.63 81.1 112.83 81.97 118.27 82.81 123.87 83.55 129.56 84.14 135.24 84.51 140.82 84.61 146.22 84.42 151.35 83.89 156.11 83.01 160.44 81.75 164.25 80.11 167.49 78.1 170.11 75.74 172.05 73.03 173.3 70.02 173.84 66.73 173.66 63.21 172.79 59.5 171.25 55.64 169.08 51.69 166.34 47.7 163.09 43.7 159.41 39.74 155.38 35.87 151.1 32.12 146.67 28.51 142.18 25.07 137.74 21.82 133.45 18.76 129.4 15.89 125.69 13.21 122.4 10.71 119.59 8.36 117.35 6.15 115.7 4.04 114.7 2 114.37 0 114.7 -2 115.7 -4.04 117.35 -6.15 119.59 -8.36 122.4 -10.71 125.69 -13.21 129.4 -15.89 133.45 -18.76 137.74 -21.82 142.18 -25.07 146.67 -28.51 151.1 -32.12 155.38 -35.87 159.41 -39.74 163.09 -43.7 166.34 -47.7 169.08 -51.69 171.25 -55.64 172.79 -59.5 173.66 -63.21 173.84 -66.73 173.3 -70.02 172.05 -73.03 170.11 -75.74 167.49 -78.1 164.25 -80.11 160.44 -81.75 156.11 -83.01 151.35 -83.89 146.22 -84.42 140.82 -84.61 135.24 -84.51 129.56 -84.14 123.87 -83.55 118.27 -82.81 112.83 -81.97 107.63 -81.1 102.74 -80.27 98.22 -79.54 94.12 -78.98 90.48 -78.65 87.33 -78.63 84.67 -78.96 82.52 -79.69 80.87 -80.87 79.69 -82.52 78.96 -84.67 78.63 -87.33 78.65 -90.48 78.98 -94.12 79.54 -98.22 80.27 -102.74 81.1 -107.63 81.97 -112.83 82.81 -118.27 83.55 -123.87 84.14 -129.56 84.51 -135.24 84.61 -140.82 84.42 -146.22 83.89 -151.35 83.01 -156.11 81.75 -160.44 80.11 -164.25 78.1 -167.49 75.74 -170.11 73.03 -172.05 70.02 -173.3 66.73 -173.84 63.21 -173.66 59.5 -172.79 55.64 -171.25 51.69 -169.08 47.7 -166.34 43.7 -163.09 39.74 -159.41 35.87 -155.38 32.12 -151.1 28.51 -146.67 25.07 -142.18 21.82 -137.74 18.76 -133.45 15.89 -129.4 13.21 -125.69 10.71 -122.4 8.36 -119.59 6.15 -117.35 4.04 -115.7 2 -114.7 0 -114.37 -2 -114.7 -4.04 -115.7 -6.15 -117.35 -8.36 -119.59 -10.71 -122.4 -13.21 -125.69 -15.89 -129.4 -18.76 -133.45 -21.82 -137.74 -25.07 -142.18 -28.51 -146.67 -32.12 -151.1 -35.87 -155.38 -39.74 -159.41 -43.7 -163.09 -47.7 -166.34 -51.69 -169.08 -55.64 -171.25 -59.5 -172.79 -63.21 -173.66 -66.73 -173.84 -70.02 -173.3 -73.03 -172.05 -75.74 -170.11 -78.1 -167.49 -80.11 -164.25 -81.75 -160.44 -83.01 -156.11 -83.89 -151.35 -84.42 -146.22 -84.61 -140.82 -84.51 -135.24 -84.14 -129.56 -83.55 -123.87 -82.81 -118.27 -81.97 -112.83 -81.1 -107.63 -80.27 -102.74 -79.54 -98.22 -78.98 -94.12 -78.65 -90.48 -78.63 -87.33 -78.96 -84.67 -79.69 -82.52 -80.87 -80.87 -82.52 -79.69 -84.67 -78.96 -87.33 -78.63 -90.48 -78.65 -94.12 -78.98 -98.22 -79.54 -102.74 -80.27 -107.63 -81.1 -112.83 -81.97 -118.27 -82.81 -123.87 -83.55 -129.56 -84.14 -135.24 -84.51 -140.82 -84.61 -146.22 -84.42 -151.35 -83.89 -156.11 -83.01 -160.44 -81.75 -164.25 -80.11 -167.49 -78.1 -170.11 -75.74 -172.05 -73.03 -173.3 -70.02 -173.84 -66.73 -173.66 -63.21 -172.79 -59.5 -171.25 -55.64 -169.08 -51.69 -166.34 -47.7 -163.09 -43.7 -159.41 -39.74 -155.38 -35.87 -151.1 -32.12 -146.67 -28.51 -142.18 -25.07 -137.74 -21.82 -133.45 -18.76 -129.4 -15.89 -125.69 -13.21 -122.4 -10.71 -119.59 -8.36 -117.35 -6.15 -115.7 -4.04 -114.7 -2 -114.37 0 -114.7 2 -115.7 4.04 -117.35 6.15 -119.59 8.36 -122.4 10.71 -125.69 13.21 -129.4 15.89 -133.45 18.76 -137.74 21.82 -142.18 25.07 -146.67 28.51 -151.1 32.12 -155.38 35.87 -159.41 39.74 -163.09 43.7 -166.34 47.7 -169.08 51.69 -171.25 55.64 -172.79 59.5 -173.66 63.21 -173.84 66.73 -173.3 70.02 -172.05 73.03 -170.11 75.74 -167.49 78.1 -164.25 80.11 -160.44 81.75 -156.11 83.01 -151.35 83.89 -146.22 84.42 -140.82 84.61 -135.24 84.51 -129.56 84.14 -123.87 83.55 -118.27 82.81 -112.83 81.97 -107.63 81.1 -102.74 80.27 -98.22 79.54 -94.12 78.98 -90.48 78.65 -87.33 78.63 -84.67 78.96 -82.52 79.69 -80.87 80.87 -79.69 82.52 -78.96 84.67 -78.63 87.33 -78.65 90.48 -78.98 94.12 -79.54 98.22 -80.27 102.74 -81.1 107.63 -81.97 112.83 -82.81 118.27 -83.55 123.87 -84.14 129.56 -84.51 135.24 -84.61 140.82 -84.42 146.22 -83.89 151.35 -83.01 156.11 -81.75 160.44 -80.11 164.25 -78.1 167.49 -75.74 170.11 -73.03 172.05 -70.02 173.3 -66.73 173.84 -63.21 173.66 -59.5 172.79 -55.64 171.25 -51.69 169.08 -47.7 166.34 -43.7 163.09 -39.74 159.41 -35.87 155.38 -32.12 151.1 -28.51 146.67 -25.07 142.18 -21.82 137.74 -18.76 133.45 -15.89 129.4 -13.21 125.69 -10.71 122.4 -8.36 119.59 -6.15 117.35 -4.04 115.7 -2 114.7" /><polygon  stroke-width="5"  fill="none"  stroke="#FFFFFF"  transform="translate(701,266) scale(4) rotate(0)"  points="0 111 1.94 111.35 3.93 112.4 5.98 114.13 8.15 116.49 10.45 119.43 12.92 122.9 15.57 126.8 18.42 131.05 21.47 135.57 24.73 140.24 28.18 144.96 31.8 149.63 35.59 154.14 39.49 158.39 43.48 162.28 47.52 165.72 51.56 168.63 55.54 170.95 59.43 172.61 63.17 173.57 66.72 173.8 70.02 173.3 73.03 172.05 75.72 170.07 78.06 167.4 80.03 164.08 81.6 160.15 82.78 155.69 83.58 150.78 84 145.49 84.07 139.92 83.83 134.16 83.31 128.29 82.58 122.43 81.68 116.65 80.68 111.04 79.65 105.69 78.65 100.67 77.77 96.03 77.06 91.84 76.61 88.13 76.47 84.93 76.71 82.26 77.36 80.11 78.49 78.49 80.11 77.36 82.26 76.71 84.93 76.47 88.13 76.61 91.84 77.06 96.03 77.77 100.67 78.65 105.69 79.65 111.04 80.68 116.65 81.68 122.43 82.58 128.29 83.31 134.16 83.83 139.92 84.07 145.49 84 150.78 83.58 155.69 82.78 160.15 81.6 164.08 80.03 167.4 78.06 170.07 75.72 172.05 73.03 173.3 70.02 173.8 66.72 173.57 63.17 172.61 59.43 170.95 55.54 168.63 51.56 165.72 47.52 162.28 43.48 158.39 39.49 154.14 35.59 149.63 31.8 144.96 28.18 140.24 24.73 135.57 21.47 131.05 18.42 126.8 15.57 122.9 12.92 119.43 10.45 116.49 8.15 114.13 5.98 112.4 3.93 111.35 1.94 111 0 111.35 -1.94 112.4 -3.93 114.13 -5.98 116.49 -8.15 119.43 -10.45 122.9 -12.92 126.8 -15.57 131.05 -18.42 135.57 -21.47 140.24 -24.73 144.96 -28.18 149.63 -31.8 154.14 -35.59 158.39 -39.49 162.28 -43.48 165.72 -47.52 168.63 -51.56 170.95 -55.54 172.61 -59.43 173.57 -63.17 173.8 -66.72 173.3 -70.02 172.05 -73.03 170.07 -75.72 167.4 -78.06 164.08 -80.03 160.15 -81.6 155.69 -82.78 150.78 -83.58 145.49 -84 139.92 -84.07 134.16 -83.83 128.29 -83.31 122.43 -82.58 116.65 -81.68 111.04 -80.68 105.69 -79.65 100.67 -78.65 96.03 -77.77 91.84 -77.06 88.13 -76.61 84.93 -76.47 82.26 -76.71 80.11 -77.36 78.49 -78.49 77.36 -80.11 76.71 -82.26 76.47 -84.93 76.61 -88.13 77.06 -91.84 77.77 -96.03 78.65 -100.67 79.65 -105.69 80.68 -111.04 81.68 -116.65 82.58 -122.43 83.31 -128.29 83.83 -134.16 84.07 -139.92 84 -145.49 83.58 -150.78 82.78 -155.69 81.6 -160.15 80.03 -164.08 78.06 -167.4 75.72 -170.07 73.03 -172.05 70.02 -173.3 66.72 -173.8 63.17 -173.57 59.43 -172.61 55.54 -170.95 51.56 -168.63 47.52 -165.72 43.48 -162.28 39.49 -158.39 35.59 -154.14 31.8 -149.63 28.18 -144.96 24.73 -140.24 21.47 -135.57 18.42 -131.05 15.57 -126.8 12.92 -122.9 10.45 -119.43 8.15 -116.49 5.98 -114.13 3.93 -112.4 1.94 -111.35 0 -111 -1.94 -111.35 -3.93 -112.4 -5.98 -114.13 -8.15 -116.49 -10.45 -119.43 -12.92 -122.9 -15.57 -126.8 -18.42 -131.05 -21.47 -135.57 -24.73 -140.24 -28.18 -144.96 -31.8 -149.63 -35.59 -154.14 -39.49 -158.39 -43.48 -162.28 -47.52 -165.72 -51.56 -168.63 -55.54 -170.95 -59.43 -172.61 -63.17 -173.57 -66.72 -173.8 -70.02 -173.3 -73.03 -172.05 -75.72 -170.07 -78.06 -167.4 -80.03 -164.08 -81.6 -160.15 -82.78 -155.69 -83.58 -150.78 -84 -145.49 -84.07 -139.92 -83.83 -134.16 -83.31 -128.29 -82.58 -122.43 -81.68 -116.65 -80.68 -111.04 -79.65 -105.69 -78.65 -100.67 -77.77 -96.03 -77.06 -91.84 -76.61 -88.13 -76.47 -84.93 -76.71 -82.26 -77.36 -80.11 -78.49 -78.49 -80.11 -77.36 -82.26 -76.71 -84.93 -76.47 -88.13 -76.61 -91.84 -77.06 -96.03 -77.77 -100.67 -78.65 -105.69 -79.65 -111.04 -80.68 -116.65 -81.68 -122.43 -82.58 -128.29 -83.31 -134.16 -83.83 -139.92 -84.07 -145.49 -84 -150.78 -83.58 -155.69 -82.78 -160.15 -81.6 -164.08 -80.03 -167.4 -78.06 -170.07 -75.72 -172.05 -73.03 -173.3 -70.02 -173.8 -66.72 -173.57 -63.17 -172.61 -59.43 -170.95 -55.54 -168.63 -51.56 -165.72 -47.52 -162.28 -43.48 -158.39 -39.49 -154.14 -35.59 -149.63 -31.8 -144.96 -28.18 -140.24 -24.73 -135.57 -21.47 -131.05 -18.42 -126.8 -15.57 -122.9 -12.92 -119.43 -10.45 -116.49 -8.15 -114.13 -5.98 -112.4 -3.93 -111.35 -1.94 -111 0 -111.35 1.94 -112.4 3.93 -114.13 5.98 -116.49 8.15 -119.43 10.45 -122.9 12.92 -126.8 15.57 -131.05 18.42 -135.57 21.47 -140.24 24.73 -144.96 28.18 -149.63 31.8 -154.14 35.59 -158.39 39.49 -162.28 43.48 -165.72 47.52 -168.63 51.56 -170.95 55.54 -172.61 59.43 -173.57 63.17 -173.8 66.72 -173.3 70.02 -172.05 73.03 -170.07 75.72 -167.4 78.06 -164.08 80.03 -160.15 81.6 -155.69 82.78 -150.78 83.58 -145.49 84 -139.92 84.07 -134.16 83.83 -128.29 83.31 -122.43 82.58 -116.65 81.68 -111.04 80.68 -105.69 79.65 -100.67 78.65 -96.03 77.77 -91.84 77.06 -88.13 76.61 -84.93 76.47 -82.26 76.71 -80.11 77.36 -78.49 78.49 -77.36 80.11 -76.71 82.26 -76.47 84.93 -76.61 88.13 -77.06 91.84 -77.77 96.03 -78.65 100.67 -79.65 105.69 -80.68 111.04 -81.68 116.65 -82.58 122.43 -83.31 128.29 -83.83 134.16 -84.07 139.92 -84 145.49 -83.58 150.78 -82.78 155.69 -81.6 160.15 -80.03 164.08 -78.06 167.4 -75.72 170.07 -73.03 172.05 -70.02 173.3 -66.72 173.8 -63.17 173.57 -59.43 172.61 -55.54 170.95 -51.56 168.63 -47.52 165.72 -43.48 162.28 -39.49 158.39 -35.59 154.14 -31.8 149.63 -28.18 144.96 -24.73 140.24 -21.47 135.57 -18.42 131.05 -15.57 126.8 -12.92 122.9 -10.45 119.43 -8.15 116.49 -5.98 114.13 -3.93 112.4 -1.94 111.35" /><polygon  stroke-width="5"  fill="none"  stroke="#FFFFFF"  transform="translate(701,266) scale(4) rotate(5.5)"  points="0 114.37 2 114.7 4.04 115.7 6.15 117.35 8.36 119.59 10.71 122.4 13.21 125.69 15.89 129.4 18.76 133.45 21.82 137.74 25.07 142.18 28.51 146.67 32.12 151.1 35.87 155.38 39.74 159.41 43.7 163.09 47.7 166.34 51.69 169.08 55.64 171.25 59.5 172.79 63.21 173.66 66.73 173.84 70.02 173.3 73.03 172.05 75.74 170.11 78.1 167.49 80.11 164.25 81.75 160.44 83.01 156.11 83.89 151.35 84.42 146.22 84.61 140.82 84.51 135.24 84.14 129.56 83.55 123.87 82.81 118.27 81.97 112.83 81.1 107.63 80.27 102.74 79.54 98.22 78.98 94.12 78.65 90.48 78.63 87.33 78.96 84.67 79.69 82.52 80.87 80.87 82.52 79.69 84.67 78.96 87.33 78.63 90.48 78.65 94.12 78.98 98.22 79.54 102.74 80.27 107.63 81.1 112.83 81.97 118.27 82.81 123.87 83.55 129.56 84.14 135.24 84.51 140.82 84.61 146.22 84.42 151.35 83.89 156.11 83.01 160.44 81.75 164.25 80.11 167.49 78.1 170.11 75.74 172.05 73.03 173.3 70.02 173.84 66.73 173.66 63.21 172.79 59.5 171.25 55.64 169.08 51.69 166.34 47.7 163.09 43.7 159.41 39.74 155.38 35.87 151.1 32.12 146.67 28.51 142.18 25.07 137.74 21.82 133.45 18.76 129.4 15.89 125.69 13.21 122.4 10.71 119.59 8.36 117.35 6.15 115.7 4.04 114.7 2 114.37 0 114.7 -2 115.7 -4.04 117.35 -6.15 119.59 -8.36 122.4 -10.71 125.69 -13.21 129.4 -15.89 133.45 -18.76 137.74 -21.82 142.18 -25.07 146.67 -28.51 151.1 -32.12 155.38 -35.87 159.41 -39.74 163.09 -43.7 166.34 -47.7 169.08 -51.69 171.25 -55.64 172.79 -59.5 173.66 -63.21 173.84 -66.73 173.3 -70.02 172.05 -73.03 170.11 -75.74 167.49 -78.1 164.25 -80.11 160.44 -81.75 156.11 -83.01 151.35 -83.89 146.22 -84.42 140.82 -84.61 135.24 -84.51 129.56 -84.14 123.87 -83.55 118.27 -82.81 112.83 -81.97 107.63 -81.1 102.74 -80.27 98.22 -79.54 94.12 -78.98 90.48 -78.65 87.33 -78.63 84.67 -78.96 82.52 -79.69 80.87 -80.87 79.69 -82.52 78.96 -84.67 78.63 -87.33 78.65 -90.48 78.98 -94.12 79.54 -98.22 80.27 -102.74 81.1 -107.63 81.97 -112.83 82.81 -118.27 83.55 -123.87 84.14 -129.56 84.51 -135.24 84.61 -140.82 84.42 -146.22 83.89 -151.35 83.01 -156.11 81.75 -160.44 80.11 -164.25 78.1 -167.49 75.74 -170.11 73.03 -172.05 70.02 -173.3 66.73 -173.84 63.21 -173.66 59.5 -172.79 55.64 -171.25 51.69 -169.08 47.7 -166.34 43.7 -163.09 39.74 -159.41 35.87 -155.38 32.12 -151.1 28.51 -146.67 25.07 -142.18 21.82 -137.74 18.76 -133.45 15.89 -129.4 13.21 -125.69 10.71 -122.4 8.36 -119.59 6.15 -117.35 4.04 -115.7 2 -114.7 0 -114.37 -2 -114.7 -4.04 -115.7 -6.15 -117.35 -8.36 -119.59 -10.71 -122.4 -13.21 -125.69 -15.89 -129.4 -18.76 -133.45 -21.82 -137.74 -25.07 -142.18 -28.51 -146.67 -32.12 -151.1 -35.87 -155.38 -39.74 -159.41 -43.7 -163.09 -47.7 -166.34 -51.69 -169.08 -55.64 -171.25 -59.5 -172.79 -63.21 -173.66 -66.73 -173.84 -70.02 -173.3 -73.03 -172.05 -75.74 -170.11 -78.1 -167.49 -80.11 -164.25 -81.75 -160.44 -83.01 -156.11 -83.89 -151.35 -84.42 -146.22 -84.61 -140.82 -84.51 -135.24 -84.14 -129.56 -83.55 -123.87 -82.81 -118.27 -81.97 -112.83 -81.1 -107.63 -80.27 -102.74 -79.54 -98.22 -78.98 -94.12 -78.65 -90.48 -78.63 -87.33 -78.96 -84.67 -79.69 -82.52 -80.87 -80.87 -82.52 -79.69 -84.67 -78.96 -87.33 -78.63 -90.48 -78.65 -94.12 -78.98 -98.22 -79.54 -102.74 -80.27 -107.63 -81.1 -112.83 -81.97 -118.27 -82.81 -123.87 -83.55 -129.56 -84.14 -135.24 -84.51 -140.82 -84.61 -146.22 -84.42 -151.35 -83.89 -156.11 -83.01 -160.44 -81.75 -164.25 -80.11 -167.49 -78.1 -170.11 -75.74 -172.05 -73.03 -173.3 -70.02 -173.84 -66.73 -173.66 -63.21 -172.79 -59.5 -171.25 -55.64 -169.08 -51.69 -166.34 -47.7 -163.09 -43.7 -159.41 -39.74 -155.38 -35.87 -151.1 -32.12 -146.67 -28.51 -142.18 -25.07 -137.74 -21.82 -133.45 -18.76 -129.4 -15.89 -125.69 -13.21 -122.4 -10.71 -119.59 -8.36 -117.35 -6.15 -115.7 -4.04 -114.7 -2 -114.37 0 -114.7 2 -115.7 4.04 -117.35 6.15 -119.59 8.36 -122.4 10.71 -125.69 13.21 -129.4 15.89 -133.45 18.76 -137.74 21.82 -142.18 25.07 -146.67 28.51 -151.1 32.12 -155.38 35.87 -159.41 39.74 -163.09 43.7 -166.34 47.7 -169.08 51.69 -171.25 55.64 -172.79 59.5 -173.66 63.21 -173.84 66.73 -173.3 70.02 -172.05 73.03 -170.11 75.74 -167.49 78.1 -164.25 80.11 -160.44 81.75 -156.11 83.01 -151.35 83.89 -146.22 84.42 -140.82 84.61 -135.24 84.51 -129.56 84.14 -123.87 83.55 -118.27 82.81 -112.83 81.97 -107.63 81.1 -102.74 80.27 -98.22 79.54 -94.12 78.98 -90.48 78.65 -87.33 78.63 -84.67 78.96 -82.52 79.69 -80.87 80.87 -79.69 82.52 -78.96 84.67 -78.63 87.33 -78.65 90.48 -78.98 94.12 -79.54 98.22 -80.27 102.74 -81.1 107.63 -81.97 112.83 -82.81 118.27 -83.55 123.87 -84.14 129.56 -84.51 135.24 -84.61 140.82 -84.42 146.22 -83.89 151.35 -83.01 156.11 -81.75 160.44 -80.11 164.25 -78.1 167.49 -75.74 170.11 -73.03 172.05 -70.02 173.3 -66.73 173.84 -63.21 173.66 -59.5 172.79 -55.64 171.25 -51.69 169.08 -47.7 166.34 -43.7 163.09 -39.74 159.41 -35.87 155.38 -32.12 151.1 -28.51 146.67 -25.07 142.18 -21.82 137.74 -18.76 133.45 -15.89 129.4 -13.21 125.69 -10.71 122.4 -8.36 119.59 -6.15 117.35 -4.04 115.7 -2 114.7" /><polygon  stroke-width="5"  fill="none"  stroke="#FFFFFF"  transform="translate(701,266) scale(4) rotate(11)"  points="0 122.58 2.14 122.88 4.32 123.75 6.56 125.19 8.89 127.16 11.34 129.62 13.93 132.51 16.67 135.76 19.58 139.3 22.66 143.05 25.91 146.93 29.32 150.84 32.88 154.7 36.57 158.42 40.37 161.9 44.23 165.07 48.13 167.86 52.03 170.18 55.89 172 59.65 173.25 63.29 173.9 66.76 173.92 70.02 173.31 73.04 172.06 75.77 170.19 78.21 167.72 80.32 164.69 82.1 161.14 83.55 157.13 84.66 152.73 85.45 148 85.94 143.02 86.16 137.88 86.14 132.64 85.93 127.4 85.58 122.22 85.13 117.18 84.66 112.34 84.21 107.78 83.85 103.55 83.64 99.68 83.63 96.21 83.89 93.16 84.45 90.56 85.37 88.4 86.68 86.68 88.4 85.37 90.56 84.45 93.16 83.89 96.21 83.63 99.68 83.64 103.55 83.85 107.78 84.21 112.34 84.66 117.18 85.13 122.22 85.58 127.4 85.93 132.64 86.14 137.88 86.16 143.02 85.94 148 85.45 152.73 84.66 157.13 83.55 161.14 82.1 164.69 80.32 167.72 78.21 170.19 75.77 172.06 73.04 173.31 70.02 173.92 66.76 173.9 63.29 173.25 59.65 172 55.89 170.18 52.03 167.86 48.13 165.07 44.23 161.9 40.37 158.42 36.57 154.7 32.88 150.84 29.32 146.93 25.91 143.05 22.66 139.3 19.58 135.76 16.67 132.51 13.93 129.62 11.34 127.16 8.89 125.19 6.56 123.75 4.32 122.88 2.14 122.58 0 122.88 -2.14 123.75 -4.32 125.19 -6.56 127.16 -8.89 129.62 -11.34 132.51 -13.93 135.76 -16.67 139.3 -19.58 143.05 -22.66 146.93 -25.91 150.84 -29.32 154.7 -32.88 158.42 -36.57 161.9 -40.37 165.07 -44.23 167.86 -48.13 170.18 -52.03 172 -55.89 173.25 -59.65 173.9 -63.29 173.92 -66.76 173.31 -70.02 172.06 -73.04 170.19 -75.77 167.72 -78.21 164.69 -80.32 161.14 -82.1 157.13 -83.55 152.73 -84.66 148 -85.45 143.02 -85.94 137.88 -86.16 132.64 -86.14 127.4 -85.93 122.22 -85.58 117.18 -85.13 112.34 -84.66 107.78 -84.21 103.55 -83.85 99.68 -83.64 96.21 -83.63 93.16 -83.89 90.56 -84.45 88.4 -85.37 86.68 -86.68 85.37 -88.4 84.45 -90.56 83.89 -93.16 83.63 -96.21 83.64 -99.68 83.85 -103.55 84.21 -107.78 84.66 -112.34 85.13 -117.18 85.58 -122.22 85.93 -127.4 86.14 -132.64 86.16 -137.88 85.94 -143.02 85.45 -148 84.66 -152.73 83.55 -157.13 82.1 -161.14 80.32 -164.69 78.21 -167.72 75.77 -170.19 73.04 -172.06 70.02 -173.31 66.76 -173.92 63.29 -173.9 59.65 -173.25 55.89 -172 52.03 -170.18 48.13 -167.86 44.23 -165.07 40.37 -161.9 36.57 -158.42 32.88 -154.7 29.32 -150.84 25.91 -146.93 22.66 -143.05 19.58 -139.3 16.67 -135.76 13.93 -132.51 11.34 -129.62 8.89 -127.16 6.56 -125.19 4.32 -123.75 2.14 -122.88 0 -122.58 -2.14 -122.88 -4.32 -123.75 -6.56 -125.19 -8.89 -127.16 -11.34 -129.62 -13.93 -132.51 -16.67 -135.76 -19.58 -139.3 -22.66 -143.05 -25.91 -146.93 -29.32 -150.84 -32.88 -154.7 -36.57 -158.42 -40.37 -161.9 -44.23 -165.07 -48.13 -167.86 -52.03 -170.18 -55.89 -172 -59.65 -173.25 -63.29 -173.9 -66.76 -173.92 -70.02 -173.31 -73.04 -172.06 -75.77 -170.19 -78.21 -167.72 -80.32 -164.69 -82.1 -161.14 -83.55 -157.13 -84.66 -152.73 -85.45 -148 -85.94 -143.02 -86.16 -137.88 -86.14 -132.64 -85.93 -127.4 -85.58 -122.22 -85.13 -117.18 -84.66 -112.34 -84.21 -107.78 -83.85 -103.55 -83.64 -99.68 -83.63 -96.21 -83.89 -93.16 -84.45 -90.56 -85.37 -88.4 -86.68 -86.68 -88.4 -85.37 -90.56 -84.45 -93.16 -83.89 -96.21 -83.63 -99.68 -83.64 -103.55 -83.85 -107.78 -84.21 -112.34 -84.66 -117.18 -85.13 -122.22 -85.58 -127.4 -85.93 -132.64 -86.14 -137.88 -86.16 -143.02 -85.94 -148 -85.45 -152.73 -84.66 -157.13 -83.55 -161.14 -82.1 -164.69 -80.32 -167.72 -78.21 -170.19 -75.77 -172.06 -73.04 -173.31 -70.02 -173.92 -66.76 -173.9 -63.29 -173.25 -59.65 -172 -55.89 -170.18 -52.03 -167.86 -48.13 -165.07 -44.23 -161.9 -40.37 -158.42 -36.57 -154.7 -32.88 -150.84 -29.32 -146.93 -25.91 -143.05 -22.66 -139.3 -19.58 -135.76 -16.67 -132.51 -13.93 -129.62 -11.34 -127.16 -8.89 -125.19 -6.56 -123.75 -4.32 -122.88 -2.14 -122.58 0 -122.88 2.14 -123.75 4.32 -125.19 6.56 -127.16 8.89 -129.62 11.34 -132.51 13.93 -135.76 16.67 -139.3 19.58 -143.05 22.66 -146.93 25.91 -150.84 29.32 -154.7 32.88 -158.42 36.57 -161.9 40.37 -165.07 44.23 -167.86 48.13 -170.18 52.03 -172 55.89 -173.25 59.65 -173.9 63.29 -173.92 66.76 -173.31 70.02 -172.06 73.04 -170.19 75.77 -167.72 78.21 -164.69 80.32 -161.14 82.1 -157.13 83.55 -152.73 84.66 -148 85.45 -143.02 85.94 -137.88 86.16 -132.64 86.14 -127.4 85.93 -122.22 85.58 -117.18 85.13 -112.34 84.66 -107.78 84.21 -103.55 83.85 -99.68 83.64 -96.21 83.63 -93.16 83.89 -90.56 84.45 -88.4 85.37 -86.68 86.68 -85.37 88.4 -84.45 90.56 -83.89 93.16 -83.63 96.21 -83.64 99.68 -83.85 103.55 -84.21 107.78 -84.66 112.34 -85.13 117.18 -85.58 122.22 -85.93 127.4 -86.14 132.64 -86.16 137.88 -85.94 143.02 -85.45 148 -84.66 152.73 -83.55 157.13 -82.1 161.14 -80.32 164.69 -78.21 167.72 -75.77 170.19 -73.04 172.06 -70.02 173.31 -66.76 173.92 -63.29 173.9 -59.65 173.25 -55.89 172 -52.03 170.18 -48.13 167.86 -44.23 165.07 -40.37 161.9 -36.57 158.42 -32.88 154.7 -29.32 150.84 -25.91 146.93 -22.66 143.05 -19.58 139.3 -16.67 135.76 -13.93 132.51 -11.34 129.62 -8.89 127.16 -6.56 125.19 -4.32 123.75 -2.14 122.88" />

<!-- Borders -->
<use href="#contentsizebox" stroke="#55679C" stroke-width="13" fill="none" opacity="1" />
<rect x="-1316.5" y="-881.5"
    width="2633" height="1763"
    rx="0" ry="0" stroke="#7C93C3" stroke-width="5" fill="none" opacity="1" />

<g mask="url(#contentsizebox-mask)">
    
</g>


<path d="M 1100,870 m -276,-80 l 3,0 3,-1.06 3,-1.0499999999999998 3,-1.04 3,-1.0100000000000002 3,-0.9900000000000002 3,-0.96 3,-0.9099999999999993 3,-0.8700000000000001 3,-0.8200000000000012 3,-0.75 3,-0.6999999999999993 3,-0.6199999999999992 3,-0.5600000000000005 3,-0.4800000000000004 3,-0.40000000000000036 3,-0.3199999999999985 3,-0.2400000000000002 3,-0.15000000000000036 3,-0.07000000000000028 3,0.019999999999999574 3,0.11000000000000121 3,0.1899999999999995 3,0.27999999999999936 3,0.3600000000000012 3,0.4299999999999997 3,0.5199999999999996 3,0.5899999999999999 3,0.6600000000000001 3,0.7200000000000006 3,0.7899999999999991 3,0.8399999999999999 3,0.8900000000000006 3,0.9299999999999997 3,0.9699999999999998 3,1 3,1.0300000000000002 3,1.0499999999999998 3,1.0500000000000003 3,1.06 3,1.06 3,1.0399999999999998 3,1.0300000000000002 3,1.0099999999999998 3,0.9699999999999998 3,0.9400000000000004 3,0.8899999999999997 3,0.8399999999999999 3,0.7900000000000009 3,0.7299999999999986 3,0.6700000000000017 3,0.5899999999999999 3,0.5199999999999996 3,0.4499999999999993 3,0.3600000000000012 3,0.27999999999999936 3,0.1999999999999993 3,0.11000000000000121 3,0.02999999999999936 3,-0.0600000000000005 3,-0.15000000000000036 3,-0.22999999999999865 3,-0.3100000000000005 3,-0.40000000000000036 3,-0.46999999999999886 3,-0.5500000000000007 3,-0.6199999999999992 3,-0.6900000000000013 3,-0.7599999999999998 3,-0.8099999999999996 3,-0.8600000000000003 3,-0.9100000000000001 3,-0.9499999999999993 3,-0.9900000000000002 3,-1.02 3,-1.0300000000000002 3,-1.05 3,-1.0599999999999998 3,-1.06 3,-1.0499999999999998 3,-1.04 3,-1.02 3,-0.9900000000000002 3,-0.96 3,-0.9199999999999999 3,-0.8700000000000001 3,-0.8200000000000003 3,-0.7599999999999998 3,-0.6999999999999993 3,-0.6300000000000008 3,-0.5600000000000005 3,-0.48999999999999844 3,-0.40000000000000036 3,-0.33000000000000007 3,-0.2400000000000002 3,-0.16000000000000014 3,-0.07000000000000028 3,0.009999999999999787 3,0.09999999999999964 3,0.1800000000000015 3,0.2699999999999996 3,0.35999999999999943 3,0.4299999999999997 3,0.5099999999999998 3,0.5800000000000001 3,0.6600000000000001 3,0.7200000000000006 3,0.7799999999999994 3,0.830000000000001 3,0.8899999999999997 3,0.9299999999999997 3,0.9700000000000006 3,0.9999999999999996 3,1.02 3,1.05 3,1.0499999999999998 3,1.06 3,1.06 3,1.05 3,1.0299999999999998 3,1 3,0.9800000000000004 3,0.9399999999999995 3,0.9000000000000004 3,0.8400000000000007 3,0.7999999999999989 3,0.7300000000000004 3,0.6699999999999999 3,0.5999999999999996 3,0.5299999999999994 3,0.45000000000000107 3,0.3699999999999992 3,0.28000000000000114 3,0.20999999999999908 3,0.120000000000001 3,0.02999999999999936 3,-0.05000000000000071 3,-0.1399999999999988 3,-0.23000000000000043 3,-0.3100000000000005 3,-0.3899999999999988 3,-0.47000000000000064 3,-0.5400000000000009 3,-0.6199999999999992 3,-0.6799999999999997 3,-0.75 3,-0.8100000000000005 3,-0.8599999999999994 3,-0.9000000000000004 3,-0.9500000000000002 3,-0.9900000000000002 3,-1.0099999999999998 3,-1.04 3,-1.0499999999999998 3,-1.05 3,-1.06 3,-1.06 3,-1.04 3,-1.0199999999999996 3,-0.9900000000000002 3,-0.96 3,-0.9199999999999999 3,-0.8799999999999999 3,-0.8200000000000003 3,-0.7599999999999998 3,-0.7100000000000009 3,-0.6399999999999988 3,-0.5600000000000005 3,-0.4900000000000002 3,-0.41999999999999993 3,-0.33000000000000007 3,-0.25 3,-0.16000000000000014 3,-0.08000000000000007 3,0 3,0.09999999999999964 3,0.17999999999999972 3,0.26000000000000156 3,0.34999999999999964 3,0.41999999999999993 3,0.5099999999999998 3,0.5800000000000001 3,0.6500000000000004 3,0.7099999999999991 " fill="none" stroke="#001533" stroke-width="11" />
<path d="M 1100,870 m -276,-40 l 3,0 3,-1.06 3,-1.0499999999999998 3,-1.04 3,-1.0100000000000002 3,-0.9900000000000002 3,-0.96 3,-0.9099999999999993 3,-0.8700000000000001 3,-0.8200000000000012 3,-0.75 3,-0.6999999999999993 3,-0.6199999999999992 3,-0.5600000000000005 3,-0.4800000000000004 3,-0.40000000000000036 3,-0.3199999999999985 3,-0.2400000000000002 3,-0.15000000000000036 3,-0.07000000000000028 3,0.019999999999999574 3,0.11000000000000121 3,0.1899999999999995 3,0.27999999999999936 3,0.3600000000000012 3,0.4299999999999997 3,0.5199999999999996 3,0.5899999999999999 3,0.6600000000000001 3,0.7200000000000006 3,0.7899999999999991 3,0.8399999999999999 3,0.8900000000000006 3,0.9299999999999997 3,0.9699999999999998 3,1 3,1.0300000000000002 3,1.0499999999999998 3,1.0500000000000003 3,1.06 3,1.06 3,1.0399999999999998 3,1.0300000000000002 3,1.0099999999999998 3,0.9699999999999998 3,0.9400000000000004 3,0.8899999999999997 3,0.8399999999999999 3,0.7900000000000009 3,0.7299999999999986 3,0.6700000000000017 3,0.5899999999999999 3,0.5199999999999996 3,0.4499999999999993 3,0.3600000000000012 3,0.27999999999999936 3,0.1999999999999993 3,0.11000000000000121 3,0.02999999999999936 3,-0.0600000000000005 3,-0.15000000000000036 3,-0.22999999999999865 3,-0.3100000000000005 3,-0.40000000000000036 3,-0.46999999999999886 3,-0.5500000000000007 3,-0.6199999999999992 3,-0.6900000000000013 3,-0.7599999999999998 3,-0.8099999999999996 3,-0.8600000000000003 3,-0.9100000000000001 3,-0.9499999999999993 3,-0.9900000000000002 3,-1.02 3,-1.0300000000000002 3,-1.05 3,-1.0599999999999998 3,-1.06 3,-1.0499999999999998 3,-1.04 3,-1.02 3,-0.9900000000000002 3,-0.96 3,-0.9199999999999999 3,-0.8700000000000001 3,-0.8200000000000003 3,-0.7599999999999998 3,-0.6999999999999993 3,-0.6300000000000008 3,-0.5600000000000005 3,-0.48999999999999844 3,-0.40000000000000036 3,-0.33000000000000007 3,-0.2400000000000002 3,-0.16000000000000014 3,-0.07000000000000028 3,0.009999999999999787 3,0.09999999999999964 3,0.1800000000000015 3,0.2699999999999996 3,0.35999999999999943 3,0.4299999999999997 3,0.5099999999999998 3,0.5800000000000001 3,0.6600000000000001 3,0.7200000000000006 3,0.7799999999999994 3,0.830000000000001 3,0.8899999999999997 3,0.9299999999999997 3,0.9700000000000006 3,0.9999999999999996 3,1.02 3,1.05 3,1.0499999999999998 3,1.06 3,1.06 3,1.05 3,1.0299999999999998 3,1 3,0.9800000000000004 3,0.9399999999999995 3,0.9000000000000004 3,0.8400000000000007 3,0.7999999999999989 3,0.7300000000000004 3,0.6699999999999999 3,0.5999999999999996 3,0.5299999999999994 3,0.45000000000000107 3,0.3699999999999992 3,0.28000000000000114 3,0.20999999999999908 3,0.120000000000001 3,0.02999999999999936 3,-0.05000000000000071 3,-0.1399999999999988 3,-0.23000000000000043 3,-0.3100000000000005 3,-0.3899999999999988 3,-0.47000000000000064 3,-0.5400000000000009 3,-0.6199999999999992 3,-0.6799999999999997 3,-0.75 3,-0.8100000000000005 3,-0.8599999999999994 3,-0.9000000000000004 3,-0.9500000000000002 3,-0.9900000000000002 3,-1.0099999999999998 3,-1.04 3,-1.0499999999999998 3,-1.05 3,-1.06 3,-1.06 3,-1.04 3,-1.0199999999999996 3,-0.9900000000000002 3,-0.96 3,-0.9199999999999999 3,-0.8799999999999999 3,-0.8200000000000003 3,-0.7599999999999998 3,-0.7100000000000009 3,-0.6399999999999988 3,-0.5600000000000005 3,-0.4900000000000002 3,-0.41999999999999993 3,-0.33000000000000007 3,-0.25 3,-0.16000000000000014 3,-0.08000000000000007 3,0 3,0.09999999999999964 3,0.17999999999999972 3,0.26000000000000156 3,0.34999999999999964 3,0.41999999999999993 3,0.5099999999999998 3,0.5800000000000001 3,0.6500000000000004 3,0.7099999999999991 " fill="none" stroke="#001533" stroke-width="11" />
<path d="M 1100,870 m -276,0 l 3,0 3,-1.06 3,-1.0499999999999998 3,-1.04 3,-1.0100000000000002 3,-0.9900000000000002 3,-0.96 3,-0.9099999999999993 3,-0.8700000000000001 3,-0.8200000000000012 3,-0.75 3,-0.6999999999999993 3,-0.6199999999999992 3,-0.5600000000000005 3,-0.4800000000000004 3,-0.40000000000000036 3,-0.3199999999999985 3,-0.2400000000000002 3,-0.15000000000000036 3,-0.07000000000000028 3,0.019999999999999574 3,0.11000000000000121 3,0.1899999999999995 3,0.27999999999999936 3,0.3600000000000012 3,0.4299999999999997 3,0.5199999999999996 3,0.5899999999999999 3,0.6600000000000001 3,0.7200000000000006 3,0.7899999999999991 3,0.8399999999999999 3,0.8900000000000006 3,0.9299999999999997 3,0.9699999999999998 3,1 3,1.0300000000000002 3,1.0499999999999998 3,1.0500000000000003 3,1.06 3,1.06 3,1.0399999999999998 3,1.0300000000000002 3,1.0099999999999998 3,0.9699999999999998 3,0.9400000000000004 3,0.8899999999999997 3,0.8399999999999999 3,0.7900000000000009 3,0.7299999999999986 3,0.6700000000000017 3,0.5899999999999999 3,0.5199999999999996 3,0.4499999999999993 3,0.3600000000000012 3,0.27999999999999936 3,0.1999999999999993 3,0.11000000000000121 3,0.02999999999999936 3,-0.0600000000000005 3,-0.15000000000000036 3,-0.22999999999999865 3,-0.3100000000000005 3,-0.40000000000000036 3,-0.46999999999999886 3,-0.5500000000000007 3,-0.6199999999999992 3,-0.6900000000000013 3,-0.7599999999999998 3,-0.8099999999999996 3,-0.8600000000000003 3,-0.9100000000000001 3,-0.9499999999999993 3,-0.9900000000000002 3,-1.02 3,-1.0300000000000002 3,-1.05 3,-1.0599999999999998 3,-1.06 3,-1.0499999999999998 3,-1.04 3,-1.02 3,-0.9900000000000002 3,-0.96 3,-0.9199999999999999 3,-0.8700000000000001 3,-0.8200000000000003 3,-0.7599999999999998 3,-0.6999999999999993 3,-0.6300000000000008 3,-0.5600000000000005 3,-0.48999999999999844 3,-0.40000000000000036 3,-0.33000000000000007 3,-0.2400000000000002 3,-0.16000000000000014 3,-0.07000000000000028 3,0.009999999999999787 3,0.09999999999999964 3,0.1800000000000015 3,0.2699999999999996 3,0.35999999999999943 3,0.4299999999999997 3,0.5099999999999998 3,0.5800000000000001 3,0.6600000000000001 3,0.7200000000000006 3,0.7799999999999994 3,0.830000000000001 3,0.8899999999999997 3,0.9299999999999997 3,0.9700000000000006 3,0.9999999999999996 3,1.02 3,1.05 3,1.0499999999999998 3,1.06 3,1.06 3,1.05 3,1.0299999999999998 3,1 3,0.9800000000000004 3,0.9399999999999995 3,0.9000000000000004 3,0.8400000000000007 3,0.7999999999999989 3,0.7300000000000004 3,0.6699999999999999 3,0.5999999999999996 3,0.5299999999999994 3,0.45000000000000107 3,0.3699999999999992 3,0.28000000000000114 3,0.20999999999999908 3,0.120000000000001 3,0.02999999999999936 3,-0.05000000000000071 3,-0.1399999999999988 3,-0.23000000000000043 3,-0.3100000000000005 3,-0.3899999999999988 3,-0.47000000000000064 3,-0.5400000000000009 3,-0.6199999999999992 3,-0.6799999999999997 3,-0.75 3,-0.8100000000000005 3,-0.8599999999999994 3,-0.9000000000000004 3,-0.9500000000000002 3,-0.9900000000000002 3,-1.0099999999999998 3,-1.04 3,-1.0499999999999998 3,-1.05 3,-1.06 3,-1.06 3,-1.04 3,-1.0199999999999996 3,-0.9900000000000002 3,-0.96 3,-0.9199999999999999 3,-0.8799999999999999 3,-0.8200000000000003 3,-0.7599999999999998 3,-0.7100000000000009 3,-0.6399999999999988 3,-0.5600000000000005 3,-0.4900000000000002 3,-0.41999999999999993 3,-0.33000000000000007 3,-0.25 3,-0.16000000000000014 3,-0.08000000000000007 3,0 3,0.09999999999999964 3,0.17999999999999972 3,0.26000000000000156 3,0.34999999999999964 3,0.41999999999999993 3,0.5099999999999998 3,0.5800000000000001 3,0.6500000000000004 3,0.7099999999999991 " fill="none" stroke="#001533" stroke-width="11" />
<path d="M 1100,870 m -276,40 l 3,0 3,-1.06 3,-1.0499999999999998 3,-1.04 3,-1.0100000000000002 3,-0.9900000000000002 3,-0.96 3,-0.9099999999999993 3,-0.8700000000000001 3,-0.8200000000000012 3,-0.75 3,-0.6999999999999993 3,-0.6199999999999992 3,-0.5600000000000005 3,-0.4800000000000004 3,-0.40000000000000036 3,-0.3199999999999985 3,-0.2400000000000002 3,-0.15000000000000036 3,-0.07000000000000028 3,0.019999999999999574 3,0.11000000000000121 3,0.1899999999999995 3,0.27999999999999936 3,0.3600000000000012 3,0.4299999999999997 3,0.5199999999999996 3,0.5899999999999999 3,0.6600000000000001 3,0.7200000000000006 3,0.7899999999999991 3,0.8399999999999999 3,0.8900000000000006 3,0.9299999999999997 3,0.9699999999999998 3,1 3,1.0300000000000002 3,1.0499999999999998 3,1.0500000000000003 3,1.06 3,1.06 3,1.0399999999999998 3,1.0300000000000002 3,1.0099999999999998 3,0.9699999999999998 3,0.9400000000000004 3,0.8899999999999997 3,0.8399999999999999 3,0.7900000000000009 3,0.7299999999999986 3,0.6700000000000017 3,0.5899999999999999 3,0.5199999999999996 3,0.4499999999999993 3,0.3600000000000012 3,0.27999999999999936 3,0.1999999999999993 3,0.11000000000000121 3,0.02999999999999936 3,-0.0600000000000005 3,-0.15000000000000036 3,-0.22999999999999865 3,-0.3100000000000005 3,-0.40000000000000036 3,-0.46999999999999886 3,-0.5500000000000007 3,-0.6199999999999992 3,-0.6900000000000013 3,-0.7599999999999998 3,-0.8099999999999996 3,-0.8600000000000003 3,-0.9100000000000001 3,-0.9499999999999993 3,-0.9900000000000002 3,-1.02 3,-1.0300000000000002 3,-1.05 3,-1.0599999999999998 3,-1.06 3,-1.0499999999999998 3,-1.04 3,-1.02 3,-0.9900000000000002 3,-0.96 3,-0.9199999999999999 3,-0.8700000000000001 3,-0.8200000000000003 3,-0.7599999999999998 3,-0.6999999999999993 3,-0.6300000000000008 3,-0.5600000000000005 3,-0.48999999999999844 3,-0.40000000000000036 3,-0.33000000000000007 3,-0.2400000000000002 3,-0.16000000000000014 3,-0.07000000000000028 3,0.009999999999999787 3,0.09999999999999964 3,0.1800000000000015 3,0.2699999999999996 3,0.35999999999999943 3,0.4299999999999997 3,0.5099999999999998 3,0.5800000000000001 3,0.6600000000000001 3,0.7200000000000006 3,0.7799999999999994 3,0.830000000000001 3,0.8899999999999997 3,0.9299999999999997 3,0.9700000000000006 3,0.9999999999999996 3,1.02 3,1.05 3,1.0499999999999998 3,1.06 3,1.06 3,1.05 3,1.0299999999999998 3,1 3,0.9800000000000004 3,0.9399999999999995 3,0.9000000000000004 3,0.8400000000000007 3,0.7999999999999989 3,0.7300000000000004 3,0.6699999999999999 3,0.5999999999999996 3,0.5299999999999994 3,0.45000000000000107 3,0.3699999999999992 3,0.28000000000000114 3,0.20999999999999908 3,0.120000000000001 3,0.02999999999999936 3,-0.05000000000000071 3,-0.1399999999999988 3,-0.23000000000000043 3,-0.3100000000000005 3,-0.3899999999999988 3,-0.47000000000000064 3,-0.5400000000000009 3,-0.6199999999999992 3,-0.6799999999999997 3,-0.75 3,-0.8100000000000005 3,-0.8599999999999994 3,-0.9000000000000004 3,-0.9500000000000002 3,-0.9900000000000002 3,-1.0099999999999998 3,-1.04 3,-1.0499999999999998 3,-1.05 3,-1.06 3,-1.06 3,-1.04 3,-1.0199999999999996 3,-0.9900000000000002 3,-0.96 3,-0.9199999999999999 3,-0.8799999999999999 3,-0.8200000000000003 3,-0.7599999999999998 3,-0.7100000000000009 3,-0.6399999999999988 3,-0.5600000000000005 3,-0.4900000000000002 3,-0.41999999999999993 3,-0.33000000000000007 3,-0.25 3,-0.16000000000000014 3,-0.08000000000000007 3,0 3,0.09999999999999964 3,0.17999999999999972 3,0.26000000000000156 3,0.34999999999999964 3,0.41999999999999993 3,0.5099999999999998 3,0.5800000000000001 3,0.6500000000000004 3,0.7099999999999991 " fill="none" stroke="#001533" stroke-width="11" />

<path d="M -1100,-830 m -276,-80 l 3,0 3,-1.06 3,-1.0499999999999998 3,-1.04 3,-1.0100000000000002 3,-0.9900000000000002 3,-0.96 3,-0.9099999999999993 3,-0.8700000000000001 3,-0.8200000000000012 3,-0.75 3,-0.6999999999999993 3,-0.6199999999999992 3,-0.5600000000000005 3,-0.4800000000000004 3,-0.40000000000000036 3,-0.3199999999999985 3,-0.2400000000000002 3,-0.15000000000000036 3,-0.07000000000000028 3,0.019999999999999574 3,0.11000000000000121 3,0.1899999999999995 3,0.27999999999999936 3,0.3600000000000012 3,0.4299999999999997 3,0.5199999999999996 3,0.5899999999999999 3,0.6600000000000001 3,0.7200000000000006 3,0.7899999999999991 3,0.8399999999999999 3,0.8900000000000006 3,0.9299999999999997 3,0.9699999999999998 3,1 3,1.0300000000000002 3,1.0499999999999998 3,1.0500000000000003 3,1.06 3,1.06 3,1.0399999999999998 3,1.0300000000000002 3,1.0099999999999998 3,0.9699999999999998 3,0.9400000000000004 3,0.8899999999999997 3,0.8399999999999999 3,0.7900000000000009 3,0.7299999999999986 3,0.6700000000000017 3,0.5899999999999999 3,0.5199999999999996 3,0.4499999999999993 3,0.3600000000000012 3,0.27999999999999936 3,0.1999999999999993 3,0.11000000000000121 3,0.02999999999999936 3,-0.0600000000000005 3,-0.15000000000000036 3,-0.22999999999999865 3,-0.3100000000000005 3,-0.40000000000000036 3,-0.46999999999999886 3,-0.5500000000000007 3,-0.6199999999999992 3,-0.6900000000000013 3,-0.7599999999999998 3,-0.8099999999999996 3,-0.8600000000000003 3,-0.9100000000000001 3,-0.9499999999999993 3,-0.9900000000000002 3,-1.02 3,-1.0300000000000002 3,-1.05 3,-1.0599999999999998 3,-1.06 3,-1.0499999999999998 3,-1.04 3,-1.02 3,-0.9900000000000002 3,-0.96 3,-0.9199999999999999 3,-0.8700000000000001 3,-0.8200000000000003 3,-0.7599999999999998 3,-0.6999999999999993 3,-0.6300000000000008 3,-0.5600000000000005 3,-0.48999999999999844 3,-0.40000000000000036 3,-0.33000000000000007 3,-0.2400000000000002 3,-0.16000000000000014 3,-0.07000000000000028 3,0.009999999999999787 3,0.09999999999999964 3,0.1800000000000015 3,0.2699999999999996 3,0.35999999999999943 3,0.4299999999999997 3,0.5099999999999998 3,0.5800000000000001 3,0.6600000000000001 3,0.7200000000000006 3,0.7799999999999994 3,0.830000000000001 3,0.8899999999999997 3,0.9299999999999997 3,0.9700000000000006 3,0.9999999999999996 3,1.02 3,1.05 3,1.0499999999999998 3,1.06 3,1.06 3,1.05 3,1.0299999999999998 3,1 3,0.9800000000000004 3,0.9399999999999995 3,0.9000000000000004 3,0.8400000000000007 3,0.7999999999999989 3,0.7300000000000004 3,0.6699999999999999 3,0.5999999999999996 3,0.5299999999999994 3,0.45000000000000107 3,0.3699999999999992 3,0.28000000000000114 3,0.20999999999999908 3,0.120000000000001 3,0.02999999999999936 3,-0.05000000000000071 3,-0.1399999999999988 3,-0.23000000000000043 3,-0.3100000000000005 3,-0.3899999999999988 3,-0.47000000000000064 3,-0.5400000000000009 3,-0.6199999999999992 3,-0.6799999999999997 3,-0.75 3,-0.8100000000000005 3,-0.8599999999999994 3,-0.9000000000000004 3,-0.9500000000000002 3,-0.9900000000000002 3,-1.0099999999999998 3,-1.04 3,-1.0499999999999998 3,-1.05 3,-1.06 3,-1.06 3,-1.04 3,-1.0199999999999996 3,-0.9900000000000002 3,-0.96 3,-0.9199999999999999 3,-0.8799999999999999 3,-0.8200000000000003 3,-0.7599999999999998 3,-0.7100000000000009 3,-0.6399999999999988 3,-0.5600000000000005 3,-0.4900000000000002 3,-0.41999999999999993 3,-0.33000000000000007 3,-0.25 3,-0.16000000000000014 3,-0.08000000000000007 3,0 3,0.09999999999999964 3,0.17999999999999972 3,0.26000000000000156 3,0.34999999999999964 3,0.41999999999999993 3,0.5099999999999998 3,0.5800000000000001 3,0.6500000000000004 3,0.7099999999999991 " fill="none" stroke="#001533" stroke-width="11" />
<path d="M -1100,-830 m -276,-40 l 3,0 3,-1.06 3,-1.0499999999999998 3,-1.04 3,-1.0100000000000002 3,-0.9900000000000002 3,-0.96 3,-0.9099999999999993 3,-0.8700000000000001 3,-0.8200000000000012 3,-0.75 3,-0.6999999999999993 3,-0.6199999999999992 3,-0.5600000000000005 3,-0.4800000000000004 3,-0.40000000000000036 3,-0.3199999999999985 3,-0.2400000000000002 3,-0.15000000000000036 3,-0.07000000000000028 3,0.019999999999999574 3,0.11000000000000121 3,0.1899999999999995 3,0.27999999999999936 3,0.3600000000000012 3,0.4299999999999997 3,0.5199999999999996 3,0.5899999999999999 3,0.6600000000000001 3,0.7200000000000006 3,0.7899999999999991 3,0.8399999999999999 3,0.8900000000000006 3,0.9299999999999997 3,0.9699999999999998 3,1 3,1.0300000000000002 3,1.0499999999999998 3,1.0500000000000003 3,1.06 3,1.06 3,1.0399999999999998 3,1.0300000000000002 3,1.0099999999999998 3,0.9699999999999998 3,0.9400000000000004 3,0.8899999999999997 3,0.8399999999999999 3,0.7900000000000009 3,0.7299999999999986 3,0.6700000000000017 3,0.5899999999999999 3,0.5199999999999996 3,0.4499999999999993 3,0.3600000000000012 3,0.27999999999999936 3,0.1999999999999993 3,0.11000000000000121 3,0.02999999999999936 3,-0.0600000000000005 3,-0.15000000000000036 3,-0.22999999999999865 3,-0.3100000000000005 3,-0.40000000000000036 3,-0.46999999999999886 3,-0.5500000000000007 3,-0.6199999999999992 3,-0.6900000000000013 3,-0.7599999999999998 3,-0.8099999999999996 3,-0.8600000000000003 3,-0.9100000000000001 3,-0.9499999999999993 3,-0.9900000000000002 3,-1.02 3,-1.0300000000000002 3,-1.05 3,-1.0599999999999998 3,-1.06 3,-1.0499999999999998 3,-1.04 3,-1.02 3,-0.9900000000000002 3,-0.96 3,-0.9199999999999999 3,-0.8700000000000001 3,-0.8200000000000003 3,-0.7599999999999998 3,-0.6999999999999993 3,-0.6300000000000008 3,-0.5600000000000005 3,-0.48999999999999844 3,-0.40000000000000036 3,-0.33000000000000007 3,-0.2400000000000002 3,-0.16000000000000014 3,-0.07000000000000028 3,0.009999999999999787 3,0.09999999999999964 3,0.1800000000000015 3,0.2699999999999996 3,0.35999999999999943 3,0.4299999999999997 3,0.5099999999999998 3,0.5800000000000001 3,0.6600000000000001 3,0.7200000000000006 3,0.7799999999999994 3,0.830000000000001 3,0.8899999999999997 3,0.9299999999999997 3,0.9700000000000006 3,0.9999999999999996 3,1.02 3,1.05 3,1.0499999999999998 3,1.06 3,1.06 3,1.05 3,1.0299999999999998 3,1 3,0.9800000000000004 3,0.9399999999999995 3,0.9000000000000004 3,0.8400000000000007 3,0.7999999999999989 3,0.7300000000000004 3,0.6699999999999999 3,0.5999999999999996 3,0.5299999999999994 3,0.45000000000000107 3,0.3699999999999992 3,0.28000000000000114 3,0.20999999999999908 3,0.120000000000001 3,0.02999999999999936 3,-0.05000000000000071 3,-0.1399999999999988 3,-0.23000000000000043 3,-0.3100000000000005 3,-0.3899999999999988 3,-0.47000000000000064 3,-0.5400000000000009 3,-0.6199999999999992 3,-0.6799999999999997 3,-0.75 3,-0.8100000000000005 3,-0.8599999999999994 3,-0.9000000000000004 3,-0.9500000000000002 3,-0.9900000000000002 3,-1.0099999999999998 3,-1.04 3,-1.0499999999999998 3,-1.05 3,-1.06 3,-1.06 3,-1.04 3,-1.0199999999999996 3,-0.9900000000000002 3,-0.96 3,-0.9199999999999999 3,-0.8799999999999999 3,-0.8200000000000003 3,-0.7599999999999998 3,-0.7100000000000009 3,-0.6399999999999988 3,-0.5600000000000005 3,-0.4900000000000002 3,-0.41999999999999993 3,-0.33000000000000007 3,-0.25 3,-0.16000000000000014 3,-0.08000000000000007 3,0 3,0.09999999999999964 3,0.17999999999999972 3,0.26000000000000156 3,0.34999999999999964 3,0.41999999999999993 3,0.5099999999999998 3,0.5800000000000001 3,0.6500000000000004 3,0.7099999999999991 " fill="none" stroke="#001533" stroke-width="11" />
<path d="M -1100,-830 m -276,0 l 3,0 3,-1.06 3,-1.0499999999999998 3,-1.04 3,-1.0100000000000002 3,-0.9900000000000002 3,-0.96 3,-0.9099999999999993 3,-0.8700000000000001 3,-0.8200000000000012 3,-0.75 3,-0.6999999999999993 3,-0.6199999999999992 3,-0.5600000000000005 3,-0.4800000000000004 3,-0.40000000000000036 3,-0.3199999999999985 3,-0.2400000000000002 3,-0.15000000000000036 3,-0.07000000000000028 3,0.019999999999999574 3,0.11000000000000121 3,0.1899999999999995 3,0.27999999999999936 3,0.3600000000000012 3,0.4299999999999997 3,0.5199999999999996 3,0.5899999999999999 3,0.6600000000000001 3,0.7200000000000006 3,0.7899999999999991 3,0.8399999999999999 3,0.8900000000000006 3,0.9299999999999997 3,0.9699999999999998 3,1 3,1.0300000000000002 3,1.0499999999999998 3,1.0500000000000003 3,1.06 3,1.06 3,1.0399999999999998 3,1.0300000000000002 3,1.0099999999999998 3,0.9699999999999998 3,0.9400000000000004 3,0.8899999999999997 3,0.8399999999999999 3,0.7900000000000009 3,0.7299999999999986 3,0.6700000000000017 3,0.5899999999999999 3,0.5199999999999996 3,0.4499999999999993 3,0.3600000000000012 3,0.27999999999999936 3,0.1999999999999993 3,0.11000000000000121 3,0.02999999999999936 3,-0.0600000000000005 3,-0.15000000000000036 3,-0.22999999999999865 3,-0.3100000000000005 3,-0.40000000000000036 3,-0.46999999999999886 3,-0.5500000000000007 3,-0.6199999999999992 3,-0.6900000000000013 3,-0.7599999999999998 3,-0.8099999999999996 3,-0.8600000000000003 3,-0.9100000000000001 3,-0.9499999999999993 3,-0.9900000000000002 3,-1.02 3,-1.0300000000000002 3,-1.05 3,-1.0599999999999998 3,-1.06 3,-1.0499999999999998 3,-1.04 3,-1.02 3,-0.9900000000000002 3,-0.96 3,-0.9199999999999999 3,-0.8700000000000001 3,-0.8200000000000003 3,-0.7599999999999998 3,-0.6999999999999993 3,-0.6300000000000008 3,-0.5600000000000005 3,-0.48999999999999844 3,-0.40000000000000036 3,-0.33000000000000007 3,-0.2400000000000002 3,-0.16000000000000014 3,-0.07000000000000028 3,0.009999999999999787 3,0.09999999999999964 3,0.1800000000000015 3,0.2699999999999996 3,0.35999999999999943 3,0.4299999999999997 3,0.5099999999999998 3,0.5800000000000001 3,0.6600000000000001 3,0.7200000000000006 3,0.7799999999999994 3,0.830000000000001 3,0.8899999999999997 3,0.9299999999999997 3,0.9700000000000006 3,0.9999999999999996 3,1.02 3,1.05 3,1.0499999999999998 3,1.06 3,1.06 3,1.05 3,1.0299999999999998 3,1 3,0.9800000000000004 3,0.9399999999999995 3,0.9000000000000004 3,0.8400000000000007 3,0.7999999999999989 3,0.7300000000000004 3,0.6699999999999999 3,0.5999999999999996 3,0.5299999999999994 3,0.45000000000000107 3,0.3699999999999992 3,0.28000000000000114 3,0.20999999999999908 3,0.120000000000001 3,0.02999999999999936 3,-0.05000000000000071 3,-0.1399999999999988 3,-0.23000000000000043 3,-0.3100000000000005 3,-0.3899999999999988 3,-0.47000000000000064 3,-0.5400000000000009 3,-0.6199999999999992 3,-0.6799999999999997 3,-0.75 3,-0.8100000000000005 3,-0.8599999999999994 3,-0.9000000000000004 3,-0.9500000000000002 3,-0.9900000000000002 3,-1.0099999999999998 3,-1.04 3,-1.0499999999999998 3,-1.05 3,-1.06 3,-1.06 3,-1.04 3,-1.0199999999999996 3,-0.9900000000000002 3,-0.96 3,-0.9199999999999999 3,-0.8799999999999999 3,-0.8200000000000003 3,-0.7599999999999998 3,-0.7100000000000009 3,-0.6399999999999988 3,-0.5600000000000005 3,-0.4900000000000002 3,-0.41999999999999993 3,-0.33000000000000007 3,-0.25 3,-0.16000000000000014 3,-0.08000000000000007 3,0 3,0.09999999999999964 3,0.17999999999999972 3,0.26000000000000156 3,0.34999999999999964 3,0.41999999999999993 3,0.5099999999999998 3,0.5800000000000001 3,0.6500000000000004 3,0.7099999999999991 " fill="none" stroke="#001533" stroke-width="11" />
<path d="M -1100,-830 m -276,40 l 3,0 3,-1.06 3,-1.0499999999999998 3,-1.04 3,-1.0100000000000002 3,-0.9900000000000002 3,-0.96 3,-0.9099999999999993 3,-0.8700000000000001 3,-0.8200000000000012 3,-0.75 3,-0.6999999999999993 3,-0.6199999999999992 3,-0.5600000000000005 3,-0.4800000000000004 3,-0.40000000000000036 3,-0.3199999999999985 3,-0.2400000000000002 3,-0.15000000000000036 3,-0.07000000000000028 3,0.019999999999999574 3,0.11000000000000121 3,0.1899999999999995 3,0.27999999999999936 3,0.3600000000000012 3,0.4299999999999997 3,0.5199999999999996 3,0.5899999999999999 3,0.6600000000000001 3,0.7200000000000006 3,0.7899999999999991 3,0.8399999999999999 3,0.8900000000000006 3,0.9299999999999997 3,0.9699999999999998 3,1 3,1.0300000000000002 3,1.0499999999999998 3,1.0500000000000003 3,1.06 3,1.06 3,1.0399999999999998 3,1.0300000000000002 3,1.0099999999999998 3,0.9699999999999998 3,0.9400000000000004 3,0.8899999999999997 3,0.8399999999999999 3,0.7900000000000009 3,0.7299999999999986 3,0.6700000000000017 3,0.5899999999999999 3,0.5199999999999996 3,0.4499999999999993 3,0.3600000000000012 3,0.27999999999999936 3,0.1999999999999993 3,0.11000000000000121 3,0.02999999999999936 3,-0.0600000000000005 3,-0.15000000000000036 3,-0.22999999999999865 3,-0.3100000000000005 3,-0.40000000000000036 3,-0.46999999999999886 3,-0.5500000000000007 3,-0.6199999999999992 3,-0.6900000000000013 3,-0.7599999999999998 3,-0.8099999999999996 3,-0.8600000000000003 3,-0.9100000000000001 3,-0.9499999999999993 3,-0.9900000000000002 3,-1.02 3,-1.0300000000000002 3,-1.05 3,-1.0599999999999998 3,-1.06 3,-1.0499999999999998 3,-1.04 3,-1.02 3,-0.9900000000000002 3,-0.96 3,-0.9199999999999999 3,-0.8700000000000001 3,-0.8200000000000003 3,-0.7599999999999998 3,-0.6999999999999993 3,-0.6300000000000008 3,-0.5600000000000005 3,-0.48999999999999844 3,-0.40000000000000036 3,-0.33000000000000007 3,-0.2400000000000002 3,-0.16000000000000014 3,-0.07000000000000028 3,0.009999999999999787 3,0.09999999999999964 3,0.1800000000000015 3,0.2699999999999996 3,0.35999999999999943 3,0.4299999999999997 3,0.5099999999999998 3,0.5800000000000001 3,0.6600000000000001 3,0.7200000000000006 3,0.7799999999999994 3,0.830000000000001 3,0.8899999999999997 3,0.9299999999999997 3,0.9700000000000006 3,0.9999999999999996 3,1.02 3,1.05 3,1.0499999999999998 3,1.06 3,1.06 3,1.05 3,1.0299999999999998 3,1 3,0.9800000000000004 3,0.9399999999999995 3,0.9000000000000004 3,0.8400000000000007 3,0.7999999999999989 3,0.7300000000000004 3,0.6699999999999999 3,0.5999999999999996 3,0.5299999999999994 3,0.45000000000000107 3,0.3699999999999992 3,0.28000000000000114 3,0.20999999999999908 3,0.120000000000001 3,0.02999999999999936 3,-0.05000000000000071 3,-0.1399999999999988 3,-0.23000000000000043 3,-0.3100000000000005 3,-0.3899999999999988 3,-0.47000000000000064 3,-0.5400000000000009 3,-0.6199999999999992 3,-0.6799999999999997 3,-0.75 3,-0.8100000000000005 3,-0.8599999999999994 3,-0.9000000000000004 3,-0.9500000000000002 3,-0.9900000000000002 3,-1.0099999999999998 3,-1.04 3,-1.0499999999999998 3,-1.05 3,-1.06 3,-1.06 3,-1.04 3,-1.0199999999999996 3,-0.9900000000000002 3,-0.96 3,-0.9199999999999999 3,-0.8799999999999999 3,-0.8200000000000003 3,-0.7599999999999998 3,-0.7100000000000009 3,-0.6399999999999988 3,-0.5600000000000005 3,-0.4900000000000002 3,-0.41999999999999993 3,-0.33000000000000007 3,-0.25 3,-0.16000000000000014 3,-0.08000000000000007 3,0 3,0.09999999999999964 3,0.17999999999999972 3,0.26000000000000156 3,0.34999999999999964 3,0.41999999999999993 3,0.5099999999999998 3,0.5800000000000001 3,0.6500000000000004 3,0.7099999999999991 " fill="none" stroke="#001533" stroke-width="11" />






</svg>
